<?xml version="1.0" encoding="UTF-8" standalone="no"?>

<!-- Made by Rob Mocci for A.V.R. -->
<!-- https://patreon.com/rmocci -->

<svg
   width="1050"
   height="1950"
   viewBox="0 0 1050 1950"
   version="1.1"
   sodipodi:docname="grid_fill_pattern_draw.svg"
   id="svg17"
   inkscape:version="1.1 (c68e22c387, 2021-05-23)"
   xmlns:inkscape="http://www.inkscape.org/namespaces/inkscape"
   xmlns:sodipodi="http://sodipodi.sourceforge.net/DTD/sodipodi-0.dtd"
   xmlns="http://www.w3.org/2000/svg"
   xmlns:svg="http://www.w3.org/2000/svg"
   xmlns:rdf="http://www.w3.org/1999/02/22-rdf-syntax-ns#"
   xmlns:cc="http://creativecommons.org/ns#"
   xmlns:dc="http://purl.org/dc/elements/1.1/">
  <title
     id="title2483">Grid fill</title>
  <defs
     id="defs19" />
  <sodipodi:namedview
     pagecolor="#ffffff"
     bordercolor="#2a2a2a"
     borderopacity="1"
     inkscape:pageshadow="0"
     inkscape:pageopacity="0"
     inkscape:pagecheckerboard="false"
     inkscape:showpageshadow="false"
     inkscape:document-units="px"
     showgrid="false"
     units="px"
     width="750px"
     height="1140px"
     borderlayer="true"
     inkscape:zoom="0.25"
     inkscape:cx="676"
     inkscape:cy="1002"
     inkscape:current-layer="bg"
     id="namedview2"
     objecttolerance="10.0"
     gridtolerance="10.0"
     guidetolerance="10.0"
     showborder="false"
     inkscape:window-width="1303"
     inkscape:window-height="745"
     inkscape:window-x="55"
     inkscape:window-y="-8"
     inkscape:window-maximized="1"
     fit-margin-top="0"
     fit-margin-left="0"
     fit-margin-right="0"
     fit-margin-bottom="0"
     inkscape:snap-global="false" />
  <g
     inkscape:label="Background"
     inkscape:groupmode="layer"
     id="bg"
     transform="translate(916,1080)">
    <path
       id="path15560"
       style="overflow:visible;fill:#000000;fill-opacity:1;stroke-width:12;stroke-dashoffset:10;paint-order:stroke fill markers"
       d="m -887.5,-1044.25 v 0.5 h 0.5 v -0.5 z m 1.5,0 v 0.5 h 1 v -0.5 z m 2,0 v 0.5 h 0.5 v -0.5 z m -3.5,1.5 v 1 h 0.5 v -1 z m 1.5,0 v 1 h 1 v -1 z m 2,0 v 1 h 0.5 v -1 z m -3.5,2 v 0.5 h 0.5 v -0.5 z m 1.5,0 v 0.5 h 1 v -0.5 z m 2,0 v 0.5 h 0.5 v -0.5 z" />
    <path
       id="path16393"
       style="overflow:visible;fill:#000000;fill-opacity:1;stroke-width:12;stroke-dashoffset:10;paint-order:stroke fill markers"
       d="m -880,-1043.75 v 1 h 1 v -1 z m 2,0 v 1 h 2 v -1 z m 3,0 v 1 h 1 v -1 z m -5,2 v 2 h 1 v -2 z m 2,0 v 2 h 2 v -2 z m 3,0 v 2 h 1 v -2 z m -5,3 v 1 h 1 v -1 z m 2,0 v 1 h 2 v -1 z m 3,0 v 1 h 1 v -1 z" />
    <path
       id="path15572"
       style="overflow:visible;fill:#000000;fill-opacity:1;stroke-width:12;stroke-dashoffset:10;paint-order:stroke fill markers"
       d="m -869.5,-1044.25 v 1.5 h 1.5 v -1.5 z m 2.5,0 v 1.5 h 3 v -1.5 z m 4,0 v 1.5 h 1.5 v -1.5 z m -6.5,2.5 v 3 h 1.5 v -3 z m 2.5,0 v 3 h 3 v -3 z m 4,0 v 3 h 1.5 v -3 z m -6.5,4 v 1.5 h 1.5 v -1.5 z m 2.5,0 v 1.5 h 3 v -1.5 z m 4,0 v 1.5 h 1.5 v -1.5 z" />
    <path
       id="path15578"
       style="overflow:visible;fill:#000000;fill-opacity:1;stroke-width:12;stroke-dashoffset:10;paint-order:stroke fill markers"
       d="m -858,-1043.75 v 2 h 2 v -2 z m 3,0 v 2 h 4 v -2 z m 5,0 v 2 h 2 v -2 z m -8,3 v 4 h 2 v -4 z m 3,0 v 4 h 4 v -4 z m 5,0 v 4 h 2 v -4 z m -8,5 v 2 h 2 v -2 z m 3,0 v 2 h 4 v -2 z m 5,0 v 2 h 2 v -2 z" />
    <path
       id="path15584"
       style="overflow:visible;fill:#000000;fill-opacity:1;stroke-width:12;stroke-dashoffset:10;paint-order:stroke fill markers"
       d="m -843.5,-1044.25 v 2.5 h 2.5 v -2.5 z m 3.5,0 v 2.5 h 5 v -2.5 z m 6,0 v 2.5 h 2.5 v -2.5 z m -9.5,3.5 v 5 h 2.5 v -5 z m 3.5,0 v 5 h 5 v -5 z m 6,0 v 5 h 2.5 v -5 z m -9.5,6 v 2.5 h 2.5 v -2.5 z m 3.5,0 v 2.5 h 5 v -2.5 z m 6,0 v 2.5 h 2.5 v -2.5 z" />
    <path
       id="path15590"
       style="overflow:visible;fill:#000000;fill-opacity:1;stroke-width:12;stroke-dashoffset:10;paint-order:stroke fill markers"
       d="m -828,-1043.75 v 3 h 3 v -3 z m 4,0 v 3 h 6 v -3 z m 7,0 v 3 h 3 v -3 z m -11,4 v 6 h 3 v -6 z m 4,0 v 6 h 6 v -6 z m 7,0 v 6 h 3 v -6 z m -11,7 v 3 h 3 v -3 z m 4,0 v 3 h 6 v -3 z m 7,0 v 3 h 3 v -3 z" />
    <path
       id="path15596"
       style="overflow:visible;fill:#000000;fill-opacity:1;stroke-width:12;stroke-dashoffset:10;paint-order:stroke fill markers"
       d="m -809.5,-1044.25 v 3.5 h 3.5 v -3.5 z m 4.5,0 v 3.5 h 7 v -3.5 z m 8,0 v 3.5 h 3.5 v -3.5 z m -12.5,4.5 v 7 h 3.5 v -7 z m 4.5,0 v 7 h 7 v -7 z m 8,0 v 7 h 3.5 v -7 z m -12.5,8 v 3.5 h 3.5 v -3.5 z m 4.5,0 v 3.5 h 7 v -3.5 z m 8,0 v 3.5 h 3.5 v -3.5 z" />
    <path
       id="path15602"
       style="overflow:visible;fill:#000000;fill-opacity:1;stroke-width:12;stroke-dashoffset:10;paint-order:stroke fill markers"
       d="m -790,-1043.75 v 4 h 4 v -4 z m 5,0 v 4 h 8 v -4 z m 9,0 v 4 h 4 v -4 z m -14,5 v 8 h 4 v -8 z m 5,0 v 8 h 8 v -8 z m 9,0 v 8 h 4 v -8 z m -14,9 v 4 h 4 v -4 z m 5,0 v 4 h 8 v -4 z m 9,0 v 4 h 4 v -4 z" />
    <path
       id="path15608"
       style="overflow:visible;fill:#000000;fill-opacity:1;stroke-width:12;stroke-dashoffset:10;paint-order:stroke fill markers"
       d="m -767.5,-1044.25 v 4.5 h 4.5 v -4.5 z m 5.5,0 v 4.5 h 9 v -4.5 z m 10,0 v 4.5 h 4.5 v -4.5 z m -15.5,5.5 v 9 h 4.5 v -9 z m 5.5,0 v 9 h 9 v -9 z m 10,0 v 9 h 4.5 v -9 z m -15.5,10 v 4.5 h 4.5 v -4.5 z m 5.5,0 v 4.5 h 9 v -4.5 z m 10,0 v 4.5 h 4.5 v -4.5 z" />
    <path
       id="path15614"
       style="overflow:visible;fill:#000000;fill-opacity:1;stroke-width:12;stroke-dashoffset:10;paint-order:stroke fill markers"
       d="m -744,-1043.75 v 5 h 5 v -5 z m 6,0 v 5 h 10 v -5 z m 11,0 v 5 h 5 v -5 z m -17,6 v 10 h 5 v -10 z m 6,0 v 10 h 10 v -10 z m 11,0 v 10 h 5 v -10 z m -17,11 v 5 h 5 v -5 z m 6,0 v 5 h 10 v -5 z m 11,0 v 5 h 5 v -5 z" />
    <path
       id="path15620"
       style="overflow:visible;fill:#000000;fill-opacity:1;stroke-width:12;stroke-dashoffset:10;paint-order:stroke fill markers"
       d="m -717.5,-1044.25 v 5.5 h 5.5 v -5.5 z m 6.5,0 v 5.5 h 11 v -5.5 z m 12,0 v 5.5 h 5.5 v -5.5 z m -18.5,6.5 v 11 h 5.5 v -11 z m 6.5,0 v 11 h 11 v -11 z m 12,0 v 11 h 5.5 v -11 z m -18.5,12 v 5.5 h 5.5 v -5.5 z m 6.5,0 v 5.5 h 11 v -5.5 z m 12,0 v 5.5 h 5.5 v -5.5 z" />
    <path
       id="path20821"
       style="overflow:visible;fill:#000000;fill-opacity:1;stroke-width:12;stroke-dashoffset:10;paint-order:stroke fill markers"
       d="m -690,-1043.75 v 6 h 6 v -6 z m 7,0 v 6 h 12 v -6 z m 13,0 v 6 h 6 v -6 z m -20,7 v 12 h 6 v -12 z m 7,0 v 12 h 12 v -12 z m 13,0 v 12 h 6 v -12 z m -20,13 v 6 h 6 v -6 z m 7,0 v 6 h 12 v -6 z m 13,0 v 6 h 6 v -6 z" />
    <path
       id="path20827"
       style="overflow:visible;fill:#000000;fill-opacity:1;stroke-width:12;stroke-dashoffset:10;paint-order:stroke fill markers"
       d="m -659.5,-1044.25 v 6.5 h 6.5 v -6.5 z m 7.5,0 v 6.5 h 13 v -6.5 z m 14,0 v 6.5 h 6.5 v -6.5 z m -21.5,7.5 v 13 h 6.5 v -13 z m 7.5,0 v 13 h 13 v -13 z m 14,0 v 13 h 6.5 v -13 z m -21.5,14 v 6.5 h 6.5 v -6.5 z m 7.5,0 v 6.5 h 13 v -6.5 z m 14,0 v 6.5 h 6.5 v -6.5 z" />
    <path
       id="path20833"
       style="overflow:visible;fill:#000000;fill-opacity:1;stroke-width:12;stroke-dashoffset:10;paint-order:stroke fill markers"
       d="m -627,-1043.75 v 7 h 7 v -7 z m 8,0 v 7 h 14 v -7 z m 15,0 v 7 h 7 v -7 z m -23,8 v 14 h 7 v -14 z m 8,0 v 14 h 14 v -14 z m 15,0 v 14 h 7 v -14 z m -23,15 v 7 h 7 v -7 z m 8,0 v 7 h 14 v -7 z m 15,0 v 7 h 7 v -7 z" />
    <path
       id="path20839"
       style="overflow:visible;fill:#000000;fill-opacity:1;stroke-width:12;stroke-dashoffset:10;paint-order:stroke fill markers"
       d="m -592.5,-1044.25 v 7.5 h 7.5 v -7.5 z m 8.5,0 v 7.5 h 15 v -7.5 z m 16,0 v 7.5 h 7.5 v -7.5 z m -24.5,8.5 v 15 h 7.5 v -15 z m 8.5,0 v 15 h 15 v -15 z m 16,0 v 15 h 7.5 v -15 z m -24.5,16 v 7.5 h 7.5 v -7.5 z m 8.5,0 v 7.5 h 15 v -7.5 z m 16,0 v 7.5 h 7.5 v -7.5 z" />
    <path
       id="path20845"
       style="overflow:visible;fill:#000000;fill-opacity:1;stroke-width:12;stroke-dashoffset:10;paint-order:stroke fill markers"
       d="m -556,-1043.75 v 8 h 8 v -8 z m 9,0 v 8 h 16 v -8 z m 17,0 v 8 h 8 v -8 z m -26,9 v 16 h 8 v -16 z m 9,0 v 16 h 16 v -16 z m 17,0 v 16 h 8 v -16 z m -26,17 v 8 h 8 v -8 z m 9,0 v 8 h 16 v -8 z m 17,0 v 8 h 8 v -8 z" />
    <path
       id="path20851"
       style="overflow:visible;fill:#000000;fill-opacity:1;stroke-width:12;stroke-dashoffset:10;paint-order:stroke fill markers"
       d="m -517.5,-1044.25 v 8.5 h 8.5 v -8.5 z m 9.5,0 v 8.5 h 17 v -8.5 z m 18,0 v 8.5 h 8.5 v -8.5 z m -27.5,9.5 v 17 h 8.5 v -17 z m 9.5,0 v 17 h 17 v -17 z m 18,0 v 17 h 8.5 v -17 z m -27.5,18 v 8.5 h 8.5 v -8.5 z m 9.5,0 v 8.5 h 17 v -8.5 z m 18,0 v 8.5 h 8.5 v -8.5 z" />
    <path
       id="path20857"
       style="overflow:visible;fill:#000000;fill-opacity:1;stroke-width:12;stroke-dashoffset:10;paint-order:stroke fill markers"
       d="m -477,-1043.75 v 9 h 9 v -9 z m 10,0 v 9 h 18 v -9 z m 19,0 v 9 h 9 v -9 z m -29,10 v 18 h 9 v -18 z m 10,0 v 18 h 18 v -18 z m 19,0 v 18 h 9 v -18 z m -29,19 v 9 h 9 v -9 z m 10,0 v 9 h 18 v -9 z m 19,0 v 9 h 9 v -9 z" />
    <path
       id="path20863"
       style="overflow:visible;fill:#000000;fill-opacity:1;stroke-width:12;stroke-dashoffset:10;paint-order:stroke fill markers"
       d="m -434.5,-1044.25 v 9.5 h 9.5 v -9.5 z m 10.5,0 v 9.5 h 19 v -9.5 z m 20,0 v 9.5 h 9.5 v -9.5 z m -30.5,10.5 v 19 h 9.5 v -19 z m 10.5,0 v 19 h 19 v -19 z m 20,0 v 19 h 9.5 v -19 z m -30.5,20 v 9.5 h 9.5 v -9.5 z m 10.5,0 v 9.5 h 19 v -9.5 z m 20,0 v 9.5 h 9.5 v -9.5 z" />
    <path
       id="path20869"
       style="overflow:visible;fill:#000000;fill-opacity:1;stroke-width:12;stroke-dashoffset:10;paint-order:stroke fill markers"
       d="m -390,-1043.75 v 10 h 10 v -10 z m 11,0 v 10 h 20 v -10 z m 21,0 v 10 h 10 v -10 z m -32,11 v 20 h 10 v -20 z m 11,0 v 20 h 20 v -20 z m 21,0 v 20 h 10 v -20 z m -32,21 v 10 h 10 v -10 z m 11,0 v 10 h 20 v -10 z m 21,0 v 10 h 10 v -10 z" />
    <path
       id="path20875"
       style="overflow:visible;fill:#000000;fill-opacity:1;stroke-width:12;stroke-dashoffset:10;paint-order:stroke fill markers"
       d="m -343.5,-1044.25 v 10.5 h 10.5 v -10.5 z m 11.5,0 v 10.5 h 21 v -10.5 z m 22,0 v 10.5 h 10.5 v -10.5 z m -33.5,11.5 v 21 h 10.5 v -21 z m 11.5,0 v 21 h 21 v -21 z m 22,0 v 21 h 10.5 v -21 z m -33.5,22 v 10.5 h 10.5 v -10.5 z m 11.5,0 v 10.5 h 21 v -10.5 z m 22,0 v 10.5 h 10.5 v -10.5 z" />
    <path
       id="path20881"
       style="overflow:visible;fill:#000000;fill-opacity:1;stroke-width:12;stroke-dashoffset:10;paint-order:stroke fill markers"
       d="m -294,-1043.75 v 11 h 11 v -11 z m 12,0 v 11 h 22 v -11 z m 23,0 v 11 h 11 v -11 z m -35,12 v 22 h 11 v -22 z m 12,0 v 22 h 22 v -22 z m 23,0 v 22 h 11 v -22 z m -35,23 v 11 h 11 v -11 z m 12,0 v 11 h 22 v -11 z m 23,0 v 11 h 11 v -11 z" />
    <path
       id="path20887"
       style="overflow:visible;fill:#000000;fill-opacity:1;stroke-width:12;stroke-dashoffset:10;paint-order:stroke fill markers"
       d="m -242.5,-1044.25 v 11.5 h 11.5 v -11.5 z m 12.5,0 v 11.5 h 23 v -11.5 z m 24,0 v 11.5 h 11.5 v -11.5 z m -36.5,12.5 v 23 h 11.5 v -23 z m 12.5,0 v 23 h 23 v -23 z m 24,0 v 23 h 11.5 v -23 z m -36.5,24 v 11.5 h 11.5 v -11.5 z m 12.5,0 v 11.5 h 23 v -11.5 z m 24,0 v 11.5 h 11.5 v -11.5 z" />
    <path
       id="path24124"
       style="overflow:visible;fill:#000000;fill-opacity:1;stroke-width:12;stroke-dashoffset:10;paint-order:stroke fill markers"
       d="m -189,-1043.75 v 12 h 12 v -12 z m 13,0 v 12 h 24 v -12 z m 25,0 v 12 h 12 v -12 z m -38,13 v 24 h 12 v -24 z m 13,0 v 24 h 24 v -24 z m 25,0 v 24 h 12 v -24 z m -38,25 v 12 h 12 v -12 z m 13,0 v 12 h 24 v -12 z m 25,0 v 12 h 12 v -12 z" />
    <path
       id="path487"
       style="overflow:visible;fill:#000000;fill-opacity:1;stroke-width:12;stroke-dashoffset:10;paint-order:stroke fill markers"
       d="m -887.5,-988.25 v 12.5 h 12.5 v -12.5 z m 13.5,0 v 12.5 h 25 v -12.5 z m 26,0 v 12.5 h 12.5 v -12.5 z m -39.5,13.5 v 25 h 12.5 v -25 z m 13.5,0 v 25 h 25 v -25 z m 26,0 v 25 h 12.5 v -25 z m -39.5,26 v 12.5 h 12.5 v -12.5 z m 13.5,0 v 12.5 h 25 v -12.5 z m 26,0 v 12.5 h 12.5 v -12.5 z" />
    <path
       id="path493"
       style="overflow:visible;fill:#000000;fill-opacity:1;stroke-width:12;stroke-dashoffset:10;paint-order:stroke fill markers"
       d="m -831,-987.75 v 13 h 13 v -13 z m 14,0 v 13 h 26 v -13 z m 27,0 v 13 h 13 v -13 z m -41,14 v 26 h 13 v -26 z m 14,0 v 26 h 26 v -26 z m 27,0 v 26 h 13 v -26 z m -41,27 v 13 h 13 v -13 z m 14,0 v 13 h 26 v -13 z m 27,0 v 13 h 13 v -13 z" />
    <path
       id="path499"
       style="overflow:visible;fill:#000000;fill-opacity:1;stroke-width:12;stroke-dashoffset:10;paint-order:stroke fill markers"
       d="m -772.5,-988.25 v 13.5 h 13.5 v -13.5 z m 14.5,0 v 13.5 h 27 v -13.5 z m 28,0 v 13.5 h 13.5 v -13.5 z m -42.5,14.5 v 27 h 13.5 v -27 z m 14.5,0 v 27 h 27 v -27 z m 28,0 v 27 h 13.5 v -27 z m -42.5,28 v 13.5 h 13.5 v -13.5 z m 14.5,0 v 13.5 h 27 v -13.5 z m 28,0 v 13.5 h 13.5 v -13.5 z" />
    <path
       id="path505"
       style="overflow:visible;fill:#000000;fill-opacity:1;stroke-width:12;stroke-dashoffset:10;paint-order:stroke fill markers"
       d="m -712,-986.75 v 14 h 14 v -14 z m 15,0 v 14 h 28 v -14 z m 29,0 v 14 h 14 v -14 z m -44,15 v 28 h 14 v -28 z m 15,0 v 28 h 28 v -28 z m 29,0 v 28 h 14 v -28 z m -44,29 v 14 h 14 v -14 z m 15,0 v 14 h 28 v -14 z m 29,0 v 14 h 14 v -14 z" />
    <path
       id="path511"
       style="overflow:visible;fill:#000000;fill-opacity:1;stroke-width:12;stroke-dashoffset:10;paint-order:stroke fill markers"
       d="m -649.5,-988.25 v 14.5 h 14.5 v -14.5 z m 15.5,0 v 14.5 h 29 v -14.5 z m 30,0 v 14.5 h 14.5 v -14.5 z m -45.5,15.5 v 29 h 14.5 v -29 z m 15.5,0 v 29 h 29 v -29 z m 30,0 v 29 h 14.5 v -29 z m -45.5,30 v 14.5 h 14.5 v -14.5 z m 15.5,0 v 14.5 h 29 v -14.5 z m 30,0 v 14.5 h 14.5 v -14.5 z" />
    <path
       id="path517"
       style="overflow:visible;fill:#000000;fill-opacity:1;stroke-width:11.9999;stroke-dashoffset:10;paint-order:stroke fill markers"
       d="m -585,-986.75 v 15 h 15 v -15 z m 16,0 v 15 h 30 v -15 z m 31,0 v 15 h 15 v -15 z m -47,16 v 30 h 15 v -30 z m 16,0 v 30 h 30 v -30 z m 31,0 v 30 h 15 v -30 z m -47,31 v 15 h 15 v -15 z m 16,0 v 15 h 30 v -15 z m 31,0 v 15 h 15 v -15 z" />
    <path
       id="path523"
       style="overflow:visible;fill:#000000;fill-opacity:1;stroke-width:11.9999;stroke-dashoffset:10;paint-order:stroke fill markers"
       d="m -518.5,-988.25 v 15.5 h 15.5 v -15.5 z m 16.5,0 v 15.5 h 31 v -15.5 z m 32,0 v 15.5 h 15.5 v -15.5 z m -48.5,16.5 v 31 h 15.5 v -31 z m 16.5,0 v 31 h 31 v -31 z m 32,0 v 31 h 15.5 v -31 z m -48.5,32 v 15.5 h 15.5 v -15.5 z m 16.5,0 v 15.5 h 31 v -15.5 z m 32,0 v 15.5 h 15.5 v -15.5 z" />
    <path
       id="path529"
       style="overflow:visible;fill:#000000;fill-opacity:1;stroke-width:12;stroke-dashoffset:10;paint-order:stroke fill markers"
       d="m -450,-986.75 v 16 h 16 v -16 z m 17,0 v 16 h 32 v -16 z m 33,0 v 16 h 16 v -16 z m -50,17 v 32 h 16 v -32 z m 17,0 v 32 h 32 v -32 z m 33,0 v 32 h 16 v -32 z m -50,33 v 16 h 16 v -16 z m 17,0 v 16 h 32 v -16 z m 33,0 v 16 h 16 v -16 z" />
    <path
       id="path535"
       style="overflow:visible;fill:#000000;fill-opacity:1;stroke-width:12;stroke-dashoffset:10;paint-order:stroke fill markers"
       d="m -379.5,-988.25 v 16.5 h 16.5 v -16.5 z m 17.5,0 v 16.5 h 33 v -16.5 z m 34,0 v 16.5 h 16.5 v -16.5 z m -51.5,17.5 v 33 h 16.5 v -33 z m 17.5,0 v 33 h 33 v -33 z m 34,0 v 33 h 16.5 v -33 z m -51.5,34 v 16.5 h 16.5 v -16.5 z m 17.5,0 v 16.5 h 33 v -16.5 z m 34,0 v 16.5 h 16.5 v -16.5 z" />
    <path
       id="path541"
       style="overflow:visible;fill:#000000;fill-opacity:1;stroke-width:12;stroke-dashoffset:10;paint-order:stroke fill markers"
       d="m -307,-986.75 v 17 h 17 v -17 z m 18,0 v 17 h 34 v -17 z m 35,0 v 17 h 17 v -17 z m -53,18 v 34 h 17 v -34 z m 18,0 v 34 h 34 v -34 z m 35,0 v 34 h 17 v -34 z m -53,35 v 17 h 17 v -17 z m 18,0 v 17 h 34 v -17 z m 35,0 v 17 h 17 v -17 z" />
    <path
       id="path547"
       style="overflow:visible;fill:#000000;fill-opacity:1;stroke-width:11.9999;stroke-dashoffset:10;paint-order:stroke fill markers"
       d="m -232.5,-988.25 v 17.5 h 17.5 v -17.5 z m 18.5,0 v 17.5 h 35 v -17.5 z m 36,0 v 17.5 h 17.5 v -17.5 z m -54.5,18.5 v 35 h 17.5 v -35 z m 18.5,0 v 35 h 35 v -35 z m 36,0 v 35 h 17.5 v -35 z m -54.5,36 v 17.5 h 17.5 v -17.5 z m 18.5,0 v 17.5 h 35 v -17.5 z m 36,0 v 17.5 h 17.5 v -17.5 z" />
    <path
       id="path553"
       style="overflow:visible;fill:#000000;fill-opacity:1;stroke-width:11.9999;stroke-dashoffset:10;paint-order:stroke fill markers"
       d="m -888,-910.75 v 18 h 18 v -18 z m 19,0 v 18 h 36 v -18 z m 37,0 v 18 h 18 v -18 z m -56,19 v 36 h 18 v -36 z m 19,0 v 36 h 36 v -36 z m 37,0 v 36 h 18 v -36 z m -56,37 v 18 h 18 v -18 z m 19,0 v 18 h 36 v -18 z m 37,0 v 18 h 18 v -18 z" />
    <path
       id="path559"
       style="overflow:visible;fill:#000000;fill-opacity:1;stroke-width:11.9999;stroke-dashoffset:10;paint-order:stroke fill markers"
       d="m -809.5,-911.25 v 18.5 h 18.5 v -18.5 z m 19.5,0 v 18.5 h 37 v -18.5 z m 38,0 v 18.5 h 18.5 v -18.5 z m -57.5,19.5 v 37 h 18.5 v -37 z m 19.5,0 v 37 h 37 v -37 z m 38,0 v 37 h 18.5 v -37 z m -57.5,38 v 18.5 h 18.5 v -18.5 z m 19.5,0 v 18.5 h 37 v -18.5 z m 38,0 v 18.5 h 18.5 v -18.5 z" />
    <path
       id="path565"
       style="overflow:visible;fill:#000000;fill-opacity:1;stroke-width:11.9999;stroke-dashoffset:10;paint-order:stroke fill markers"
       d="m -729,-910.75 v 19 h 19 v -19 z m 20,0 v 19 h 38 v -19 z m 39,0 v 19 h 19 v -19 z m -59,20 v 38 h 19 v -38 z m 20,0 v 38 h 38 v -38 z m 39,0 v 38 h 19 v -38 z m -59,39 v 19 h 19 v -19 z m 20,0 v 19 h 38 v -19 z m 39,0 v 19 h 19 v -19 z" />
    <path
       id="path571"
       style="overflow:visible;fill:#000000;fill-opacity:1;stroke-width:11.9999;stroke-dashoffset:10;paint-order:stroke fill markers"
       d="m -646.5,-911.25 v 19.5 h 19.5 v -19.5 z m 20.5,0 v 19.5 h 39 v -19.5 z m 40,0 v 19.5 h 19.5 v -19.5 z m -60.5,20.5 v 39 h 19.5 v -39 z m 20.5,0 v 39 h 39 v -39 z m 40,0 v 39 h 19.5 v -39 z m -60.5,40 v 19.5 h 19.5 v -19.5 z m 20.5,0 v 19.5 h 39 v -19.5 z m 40,0 v 19.5 h 19.5 v -19.5 z" />
    <path
       id="path577"
       style="overflow:visible;fill:#000000;fill-opacity:1;stroke-width:11.9999;stroke-dashoffset:10;paint-order:stroke fill markers"
       d="m -562,-910.75 v 20 h 20 v -20 z m 21,0 v 20 h 40 v -20 z m 41,0 v 20 h 20 v -20 z m -62,21 v 40 h 20 v -40 z m 21,0 v 40 h 40 v -40 z m 41,0 v 40 h 20 v -40 z m -62,41 v 20 h 20 v -20 z m 21,0 v 20 h 40 v -20 z m 41,0 v 20 h 20 v -20 z" />
    <path
       id="path583"
       style="overflow:visible;fill:#000000;fill-opacity:1;stroke-width:11.9999;stroke-dashoffset:10;paint-order:stroke fill markers"
       d="m -475.5,-911.25 v 20.5 h 20.5 v -20.5 z m 21.5,0 v 20.5 h 41 v -20.5 z m 42,0 v 20.5 h 20.5 v -20.5 z m -63.5,21.5 v 41 h 20.5 v -41 z m 21.5,0 v 41 h 41 v -41 z m 42,0 v 41 h 20.5 v -41 z m -63.5,42 v 20.5 h 20.5 v -20.5 z m 21.5,0 v 20.5 h 41 v -20.5 z m 42,0 v 20.5 h 20.5 v -20.5 z" />
    <path
       id="path589"
       style="overflow:visible;fill:#000000;fill-opacity:1;stroke-width:11.9999;stroke-dashoffset:10;paint-order:stroke fill markers"
       d="m -387,-910.75 v 21 h 21 v -21 z m 22,0 v 21 h 42 v -21 z m 43,0 v 21 h 21 v -21 z m -65,22 v 42 h 21 v -42 z m 22,0 v 42 h 42 v -42 z m 43,0 v 42 h 21 v -42 z m -65,43 v 21 h 21 v -21 z m 22,0 v 21 h 42 v -21 z m 43,0 v 21 h 21 v -21 z" />
    <path
       id="path595"
       style="overflow:visible;fill:#000000;fill-opacity:1;stroke-width:11.9999;stroke-dashoffset:10;paint-order:stroke fill markers"
       d="m -296.5,-911.25 v 21.5 h 21.5 v -21.5 z m 22.5,0 v 21.5 h 43 v -21.5 z m 44,0 v 21.5 h 21.5 v -21.5 z m -66.5,22.5 v 43 h 21.5 v -43 z m 22.5,0 v 43 h 43 v -43 z m 44,0 v 43 h 21.5 v -43 z m -66.5,44 v 21.5 h 21.5 v -21.5 z m 22.5,0 v 21.5 h 43 v -21.5 z m 44,0 v 21.5 h 21.5 v -21.5 z" />
    <path
       id="path601"
       style="overflow:visible;fill:#000000;fill-opacity:1;stroke-width:11.9999;stroke-dashoffset:10;paint-order:stroke fill markers"
       d="m -204,-910.75 v 22 h 22 v -22 z m 23,0 v 22 h 44 v -22 z m 45,0 v 22 h 22 v -22 z m -68,23 v 44 h 22 v -44 z m 23,0 v 44 h 44 v -44 z m 45,0 v 44 h 22 v -44 z m -68,45 v 22 h 22 v -22 z m 23,0 v 22 h 44 v -22 z m 45,0 v 22 h 22 v -22 z" />
    <path
       id="path607"
       style="overflow:visible;fill:#000000;fill-opacity:1;stroke-width:11.9999;stroke-dashoffset:10;paint-order:stroke fill markers"
       d="m -887.5,-815.25 v 22.5 h 22.5 v -22.5 z m 23.5,0 v 22.5 h 45 v -22.5 z m 46,0 v 22.5 h 22.5 v -22.5 z m -69.5,23.5 v 45 h 22.5 v -45 z m 23.5,0 v 45 h 45 v -45 z m 46,0 v 45 h 22.5 v -45 z m -69.5,46 v 22.5 h 22.5 v -22.5 z m 23.5,0 v 22.5 h 45 v -22.5 z m 46,0 v 22.5 h 22.5 v -22.5 z" />
    <path
       id="path613"
       style="overflow:visible;fill:#000000;fill-opacity:1;stroke-width:12;stroke-dashoffset:10;paint-order:stroke fill markers"
       d="m -791,-814.75 v 23 h 23 v -23 z m 24,0 v 23 h 46 v -23 z m 47,0 v 23 h 23 v -23 z m -71,24 v 46 h 23 v -46 z m 24,0 v 46 h 46 v -46 z m 47,0 v 46 h 23 v -46 z m -71,47 v 23 h 23 v -23 z m 24,0 v 23 h 46 v -23 z m 47,0 v 23 h 23 v -23 z" />
    <path
       id="path619"
       style="overflow:visible;fill:#000000;fill-opacity:1;stroke-width:12;stroke-dashoffset:10;paint-order:stroke fill markers"
       d="m -692.5,-815.25 v 23.5 h 23.5 v -23.5 z m 24.5,0 v 23.5 h 47 v -23.5 z m 48,0 v 23.5 h 23.5 v -23.5 z m -72.5,24.5 v 47 h 23.5 v -47 z m 24.5,0 v 47 h 47 v -47 z m 48,0 v 47 h 23.5 v -47 z m -72.5,48 v 23.5 h 23.5 v -23.5 z m 24.5,0 v 23.5 h 47 v -23.5 z m 48,0 v 23.5 h 23.5 v -23.5 z" />
    <path
       id="path625"
       style="overflow:visible;fill:#000000;fill-opacity:1;stroke-width:12;stroke-dashoffset:10;paint-order:stroke fill markers"
       d="m -592,-814.75 v 24 h 24 v -24 z m 25,0 v 24 h 48 v -24 z m 49,0 v 24 h 24 v -24 z m -74,25 v 48 h 24 v -48 z m 25,0 v 48 h 48 v -48 z m 49,0 v 48 h 24 v -48 z m -74,49 v 24 h 24 v -24 z m 25,0 v 24 h 48 v -24 z m 49,0 v 24 h 24 v -24 z" />
    <path
       id="path631"
       style="overflow:visible;fill:#000000;fill-opacity:1;stroke-width:12;stroke-dashoffset:10;paint-order:stroke fill markers"
       d="m -489.5,-815.25 v 24.5 h 24.5 v -24.5 z m 25.5,0 v 24.5 h 49 v -24.5 z m 50,0 v 24.5 h 24.5 v -24.5 z m -75.5,25.5 v 49 h 24.5 v -49 z m 25.5,0 v 49 h 49 v -49 z m 50,0 v 49 h 24.5 v -49 z m -75.5,50 v 24.5 h 24.5 v -24.5 z m 25.5,0 v 24.5 h 49 v -24.5 z m 50,0 v 24.5 h 24.5 v -24.5 z" />
    <path
       id="path10023"
       style="overflow:visible;fill:#000000;fill-opacity:1;stroke-width:12;stroke-dashoffset:10;paint-order:stroke fill markers"
       d="m -385,-814.75 v 25 h 25 v -25 z m 26,0 v 25 h 50 v -25 z m 51,0 v 25 h 25 v -25 z m -77,26 v 50 h 25 v -50 z m 26,0 v 50 h 50 v -50 z m 51,0 v 50 h 25 v -50 z m -77,51 v 25 h 25 v -25 z m 26,0 v 25 h 50 v -25 z m 51,0 v 25 h 25 v -25 z" />
    <path
       id="path10029"
       style="overflow:visible;fill:#000000;fill-opacity:1;stroke-width:12;stroke-dashoffset:10;paint-order:stroke fill markers"
       d="m -278.5,-815.25 v 25.5 h 25.5 v -25.5 z m 26.5,0 v 25.5 h 51 v -25.5 z m 52,0 v 25.5 h 25.5 v -25.5 z m -78.5,26.5 v 51 h 25.5 v -51 z m 26.5,0 v 51 h 51 v -51 z m 52,0 v 51 h 25.5 v -51 z m -78.5,52 v 25.5 h 25.5 v -25.5 z m 26.5,0 v 25.5 h 51 v -25.5 z m 52,0 v 25.5 h 25.5 v -25.5 z" />
    <path
       id="path10035"
       style="overflow:visible;fill:#000000;fill-opacity:1;stroke-width:12;stroke-dashoffset:10;paint-order:stroke fill markers"
       d="m -170,-814.75 v 26 h 26 v -26 z m 27,0 v 26 h 52 v -26 z m 53,0 v 26 h 26 v -26 z m -80,27 v 52 h 26 v -52 z m 27,0 v 52 h 52 v -52 z m 53,0 v 52 h 26 v -52 z m -80,53 v 26 h 26 v -26 z m 27,0 v 26 h 52 v -26 z m 53,0 v 26 h 26 v -26 z" />
    <path
       id="path10041"
       style="overflow:visible;fill:#000000;fill-opacity:1;stroke-width:12;stroke-dashoffset:10;paint-order:stroke fill markers"
       d="m -887.5,-702.25 v 26.5 h 26.5 v -26.5 z m 27.5,0 v 26.5 h 53 v -26.5 z m 54,0 v 26.5 h 26.5 v -26.5 z m -81.5,27.5 v 53 h 26.5 v -53 z m 27.5,0 v 53 h 53 v -53 z m 54,0 v 53 h 26.5 v -53 z m -81.5,54 v 26.5 h 26.5 v -26.5 z m 27.5,0 v 26.5 h 53 v -26.5 z m 54,0 v 26.5 h 26.5 v -26.5 z" />
    <path
       id="path10047"
       style="overflow:visible;fill:#000000;fill-opacity:1;stroke-width:12;stroke-dashoffset:10;paint-order:stroke fill markers"
       d="m -775,-701.75 v 27 h 27 v -27 z m 28,0 v 27 h 54 v -27 z m 55,0 v 27 h 27 v -27 z m -83,28 v 54 h 27 v -54 z m 28,0 v 54 h 54 v -54 z m 55,0 v 54 h 27 v -54 z m -83,55 v 27 h 27 v -27 z m 28,0 v 27 h 54 v -27 z m 55,0 v 27 h 27 v -27 z" />
    <path
       id="path10053"
       style="overflow:visible;fill:#000000;fill-opacity:1;stroke-width:12;stroke-dashoffset:10;paint-order:stroke fill markers"
       d="m -660.5,-702.25 v 27.5 h 27.5 v -27.5 z m 28.5,0 v 27.5 h 55 v -27.5 z m 56,0 v 27.5 h 27.5 v -27.5 z m -84.5,28.5 v 55 h 27.5 v -55 z m 28.5,0 v 55 h 55 v -55 z m 56,0 v 55 h 27.5 v -55 z m -84.5,56 v 27.5 h 27.5 v -27.5 z m 28.5,0 v 27.5 h 55 v -27.5 z m 56,0 v 27.5 h 27.5 v -27.5 z" />
    <path
       id="path10059"
       style="overflow:visible;fill:#000000;fill-opacity:1;stroke-width:12;stroke-dashoffset:10;paint-order:stroke fill markers"
       d="m -543,-701.75 v 28 h 28 v -28 z m 29,0 v 28 h 56 v -28 z m 57,0 v 28 h 28 v -28 z m -86,29 v 56 h 28 v -56 z m 29,0 v 56 h 56 v -56 z m 57,0 v 56 h 28 v -56 z m -86,57 v 28 h 28 v -28 z m 29,0 v 28 h 56 v -28 z m 57,0 v 28 h 28 v -28 z" />
    <path
       id="path10065"
       style="overflow:visible;fill:#000000;fill-opacity:1;stroke-width:12;stroke-dashoffset:10;paint-order:stroke fill markers"
       d="m -423.5,-702.25 v 28.5 h 28.5 v -28.5 z m 29.5,0 v 28.5 h 57 v -28.5 z m 58,0 v 28.5 h 28.5 v -28.5 z m -87.5,29.5 v 57 h 28.5 v -57 z m 29.5,0 v 57 h 57 v -57 z m 58,0 v 57 h 28.5 v -57 z m -87.5,58 v 28.5 h 28.5 v -28.5 z m 29.5,0 v 28.5 h 57 v -28.5 z m 58,0 v 28.5 h 28.5 v -28.5 z" />
    <path
       id="path10071"
       style="overflow:visible;fill:#000000;fill-opacity:1;stroke-width:12;stroke-dashoffset:10;paint-order:stroke fill markers"
       d="m -302,-701.75 v 29 h 29 v -29 z m 30,0 v 29 h 58 v -29 z m 59,0 v 29 h 29 v -29 z m -89,30 v 58 h 29 v -58 z m 30,0 v 58 h 58 v -58 z m 59,0 v 58 h 29 v -58 z m -89,59 v 29 h 29 v -29 z m 30,0 v 29 h 58 v -29 z m 59,0 v 29 h 29 v -29 z" />
    <path
       id="path10077"
       style="overflow:visible;fill:#000000;fill-opacity:1;stroke-width:12;stroke-dashoffset:10;paint-order:stroke fill markers"
       d="m -178.5,-702.25 v 29.5 h 29.5 v -29.5 z m 30.5,0 v 29.5 h 59 v -29.5 z m 60,0 v 29.5 h 29.5 v -29.5 z m -90.5,30.5 v 59 h 29.5 v -59 z m 30.5,0 v 59 h 59 v -59 z m 60,0 v 59 h 29.5 v -59 z m -90.5,60 v 29.5 h 29.5 v -29.5 z m 30.5,0 v 29.5 h 59 v -29.5 z m 60,0 v 29.5 h 29.5 v -29.5 z" />
    <path
       id="path18460"
       style="overflow:visible;fill:#000000;fill-opacity:1;stroke-width:12;stroke-dashoffset:10;paint-order:stroke fill markers"
       d="m -888,-574.75 v 30 h 30 v -30 z m 31,0 v 30 h 60 v -30 z m 61,0 v 30 h 30 v -30 z m -92,31 v 60 h 30 v -60 z m 31,0 v 60 h 60 v -60 z m 61,0 v 60 h 30 v -60 z m -92,61 v 30 h 30 v -30 z m 31,0 v 30 h 60 v -30 z m 61,0 v 30 h 30 v -30 z" />
    <path
       id="path18478"
       style="overflow:visible;fill:#000000;fill-opacity:1;stroke-width:12;stroke-dashoffset:10;paint-order:stroke fill markers"
       d="m -761.5,-575.25 v 30.5 h 30.5 v -30.5 z m 31.5,0 v 30.5 h 61 v -30.5 z m 62,0 v 30.5 h 30.5 v -30.5 z m -93.5,31.5 v 61 h 30.5 v -61 z m 31.5,0 v 61 h 61 v -61 z m 62,0 v 61 h 30.5 v -61 z m -93.5,62 v 30.5 h 30.5 v -30.5 z m 31.5,0 v 30.5 h 61 v -30.5 z m 62,0 v 30.5 h 30.5 v -30.5 z" />
    <path
       id="path18484"
       style="overflow:visible;fill:#000000;fill-opacity:1;stroke-width:12;stroke-dashoffset:10;paint-order:stroke fill markers"
       d="m -632,-574.75 v 31 h 31 v -31 z m 32,0 v 31 h 62 v -31 z m 63,0 v 31 h 31 v -31 z m -95,32 v 62 h 31 v -62 z m 32,0 v 62 h 62 v -62 z m 63,0 v 62 h 31 v -62 z m -95,63 v 31 h 31 v -31 z m 32,0 v 31 h 62 v -31 z m 63,0 v 31 h 31 v -31 z" />
    <path
       id="path18490"
       style="overflow:visible;fill:#000000;fill-opacity:1;stroke-width:12;stroke-dashoffset:10;paint-order:stroke fill markers"
       d="m -500.5,-574.25 v 31.5 h 31.5 v -31.5 z m 32.5,0 v 31.5 h 63 v -31.5 z m 64,0 v 31.5 h 31.5 v -31.5 z m -96.5,32.5 v 63 h 31.5 v -63 z m 32.5,0 v 63 h 63 v -63 z m 64,0 v 63 h 31.5 v -63 z m -96.5,64 v 31.5 h 31.5 v -31.5 z m 32.5,0 v 31.5 h 63 v -31.5 z m 64,0 v 31.5 h 31.5 v -31.5 z" />
    <path
       id="path18496"
       style="overflow:visible;fill:#000000;fill-opacity:1;stroke-width:12;stroke-dashoffset:10;paint-order:stroke fill markers"
       d="m -367,-574.75 v 32 h 32 v -32 z m 33,0 v 32 h 64 v -32 z m 65,0 v 32 h 32 v -32 z m -98,33 v 64 h 32 v -64 z m 33,0 v 64 h 64 v -64 z m 65,0 v 64 h 32 v -64 z m -98,65 v 32 h 32 v -32 z m 33,0 v 32 h 64 v -32 z m 65,0 v 32 h 32 v -32 z" />
    <path
       id="path18502"
       style="overflow:visible;fill:#000000;fill-opacity:1;stroke-width:12;stroke-dashoffset:10;paint-order:stroke fill markers"
       d="m -231.5,-575.25 v 32.5 h 32.5 v -32.5 z m 33.5,0 v 32.5 h 65 v -32.5 z m 66,0 v 32.5 h 32.5 v -32.5 z m -99.5,33.5 v 65 h 32.5 v -65 z m 33.5,0 v 65 h 65 v -65 z m 66,0 v 65 h 32.5 v -65 z m -99.5,66 v 32.5 h 32.5 v -32.5 z m 33.5,0 v 32.5 h 65 v -32.5 z m 66,0 v 32.5 h 32.5 v -32.5 z" />
    <path
       id="path18508"
       style="overflow:visible;fill:#000000;fill-opacity:1;stroke-width:12;stroke-dashoffset:10;paint-order:stroke fill markers"
       d="m -888,-433.75 v 33 h 33 v -33 z m 34,0 v 33 h 66 v -33 z m 67,0 v 33 h 33 v -33 z m -101,34 v 66 h 33 v -66 z m 34,0 v 66 h 66 v -66 z m 67,0 v 66 h 33 v -66 z m -101,67 v 33 h 33 v -33 z m 34,0 v 33 h 66 v -33 z m 67,0 v 33 h 33 v -33 z" />
    <path
       id="path18514"
       style="overflow:visible;fill:#000000;fill-opacity:1;stroke-width:12;stroke-dashoffset:10;paint-order:stroke fill markers"
       d="m -748.5,-434.25 v 33.5 h 33.5 v -33.5 z m 34.5,0 v 33.5 h 67 v -33.5 z m 68,0 v 33.5 h 33.5 v -33.5 z m -102.5,34.5 v 67 h 33.5 v -67 z m 34.5,0 v 67 h 67 v -67 z m 68,0 v 67 h 33.5 v -67 z m -102.5,68 v 33.5 h 33.5 v -33.5 z m 34.5,0 v 33.5 h 67 v -33.5 z m 68,0 v 33.5 h 33.5 v -33.5 z" />
    <path
       id="path18520"
       style="overflow:visible;fill:#000000;fill-opacity:1;stroke-width:12;stroke-dashoffset:10;paint-order:stroke fill markers"
       d="m -606,-433.75 v 34 h 34 v -34 z m 35,0 v 34 h 68 v -34 z m 69,0 v 34 h 34 v -34 z m -104,35 v 68 h 34 v -68 z m 35,0 v 68 h 68 v -68 z m 69,0 v 68 h 34 v -68 z m -104,69 v 34 h 34 v -34 z m 35,0 v 34 h 68 v -34 z m 69,0 v 34 h 34 v -34 z" />
    <path
       id="path18526"
       style="overflow:visible;fill:#000000;fill-opacity:1;stroke-width:12;stroke-dashoffset:10;paint-order:stroke fill markers"
       d="m -461.5,-434.25 v 34.5 h 34.5 v -34.5 z m 35.5,0 v 34.5 h 69 v -34.5 z m 70,0 v 34.5 h 34.5 v -34.5 z m -105.5,35.5 v 69 h 34.5 v -69 z m 35.5,0 v 69 h 69 v -69 z m 70,0 v 69 h 34.5 v -69 z m -105.5,70 v 34.5 h 34.5 v -34.5 z m 35.5,0 v 34.5 h 69 v -34.5 z m 70,0 v 34.5 h 34.5 v -34.5 z" />
    <path
       id="path21300"
       style="overflow:visible;fill:#000000;fill-opacity:1;stroke-width:12.0001;stroke-dashoffset:10;paint-order:stroke fill markers"
       d="m -315,-433.75 v 35 h 35 v -35 z m 36,0 v 35 h 70 v -35 z m 71,0 v 35 h 35 v -35 z m -107,36 v 70 h 35 v -70 z m 36,0 v 70 h 70 v -70 z m 71,0 v 70 h 35 v -70 z m -107,71 v 35 h 35 v -35 z m 36,0 v 35 h 70 v -35 z m 71,0 v 35 h 35 v -35 z" />
    <path
       id="path21306"
       style="overflow:visible;fill:#000000;fill-opacity:1;stroke-width:12.0001;stroke-dashoffset:10;paint-order:stroke fill markers"
       d="m -166.5,-434.25 v 35.5 h 35.5 v -35.5 z m 36.5,0 v 35.5 h 71 v -35.5 z m 72,0 v 35.5 h 35.5 v -35.5 z m -108.5,36.5 v 71 h 35.5 v -71 z m 36.5,0 v 71 h 71 v -71 z m 72,0 v 71 h 35.5 v -71 z m -108.5,72 v 35.5 h 35.5 v -35.5 z m 36.5,0 v 35.5 h 71 v -35.5 z m 72,0 v 35.5 h 35.5 v -35.5 z" />
    <path
       id="path22907"
       style="overflow:visible;fill:#000000;fill-opacity:1;stroke-width:12;stroke-dashoffset:10;paint-order:stroke fill markers"
       d="m -888,-282.75 v 36 h 36 v -36 z m 37,0 v 36 h 72 v -36 z m 73,0 v 36 h 36 v -36 z m -110,37 v 72 h 36 v -72 z m 37,0 v 72 h 72 v -72 z m 73,0 v 72 h 36 v -72 z m -110,73 v 36 h 36 v -36 z m 37,0 v 36 h 72 v -36 z m 73,0 v 36 h 36 v -36 z" />
    <path
       id="path23984"
       style="overflow:visible;fill:#000000;fill-opacity:1;stroke-width:12;stroke-dashoffset:10;paint-order:stroke fill markers"
       d="m -736.5,-283.25 v 36.5 h 36.5 v -36.5 z m 37.5,0 v 36.5 h 73 v -36.5 z m 74,0 v 36.5 h 36.5 v -36.5 z m -111.5,37.5 v 73 h 36.5 v -73 z m 37.5,0 v 73 h 73 v -73 z m 74,0 v 73 h 36.5 v -73 z m -111.5,74 v 36.5 h 36.5 v -36.5 z m 37.5,0 v 36.5 h 73 v -36.5 z m 74,0 v 36.5 h 36.5 v -36.5 z" />
    <path
       id="path23990"
       style="overflow:visible;fill:#000000;fill-opacity:1;stroke-width:12;stroke-dashoffset:10;paint-order:stroke fill markers"
       d="m -583,-282.75 v 37 h 37 v -37 z m 38,0 v 37 h 74 v -37 z m 75,0 v 37 h 37 v -37 z m -113,38 v 74 h 37 v -74 z m 38,0 v 74 h 74 v -74 z m 75,0 v 74 h 37 v -74 z m -113,75 v 37 h 37 v -37 z m 38,0 v 37 h 74 v -37 z m 75,0 v 37 h 37 v -37 z" />
    <path
       id="path23996"
       style="overflow:visible;fill:#000000;fill-opacity:1;stroke-width:12;stroke-dashoffset:10;paint-order:stroke fill markers"
       d="m -427.5,-282.25 v 37.5 h 37.5 v -37.5 z m 38.5,0 v 37.5 h 75 v -37.5 z m 76,0 v 37.5 h 37.5 v -37.5 z m -114.5,38.5 v 75 h 37.5 v -75 z m 38.5,0 v 75 h 75 v -75 z m 76,0 v 75 h 37.5 v -75 z m -114.5,76 v 37.5 h 37.5 v -37.5 z m 38.5,0 v 37.5 h 75 v -37.5 z m 76,0 v 37.5 h 37.5 v -37.5 z" />
    <path
       id="path24002"
       style="overflow:visible;fill:#000000;fill-opacity:1;stroke-width:12;stroke-dashoffset:10;paint-order:stroke fill markers"
       d="m -270,-282.75 v 38 h 38 v -38 z m 39,0 v 38 h 76 v -38 z m 77,0 v 38 h 38 v -38 z m -116,39 v 76 h 38 v -76 z m 39,0 v 76 h 76 v -76 z m 77,0 v 76 h 38 v -76 z m -116,77 v 38 h 38 v -38 z m 39,0 v 38 h 76 v -38 z m 77,0 v 38 h 38 v -38 z" />
    <path
       id="path25825"
       style="overflow:visible;fill:#000000;fill-opacity:1;stroke-width:12.0001;stroke-dashoffset:10;paint-order:stroke fill markers"
       d="m -887.5,-121.25 v 38.5 h 38.5 v -38.5 z m 39.5,0 v 38.5 h 77 v -38.5 z m 78,0 v 38.5 h 38.5 v -38.5 z m -117.5,39.5 v 77 h 38.5 v -77 z m 39.5,0 v 77 h 77 v -77 z m 78,0 v 77 h 38.5 v -77 z m -117.5,78 v 38.5 h 38.5 v -38.5 z m 39.5,0 v 38.5 h 77 v -38.5 z m 78,0 v 38.5 h 38.5 v -38.5 z" />
    <path
       id="path26912"
       style="overflow:visible;fill:#000000;fill-opacity:1;stroke-width:12;stroke-dashoffset:10;paint-order:stroke fill markers"
       d="m -726,-121.75 v 39 h 39 v -39 z m 40,0 v 39 h 78 v -39 z m 79,0 v 39 h 39 v -39 z m -119,40 v 78 h 39 v -78 z m 40,0 v 78 h 78 v -78 z m 79,0 v 78 h 39 v -78 z m -119,79 v 39 h 39 v -39 z m 40,0 v 39 h 78 v -39 z m 79,0 v 39 h 39 v -39 z" />
    <path
       id="path26918"
       style="overflow:visible;fill:#000000;fill-opacity:1;stroke-width:12;stroke-dashoffset:10;paint-order:stroke fill markers"
       d="m -562.5,-121.25 v 39.5 h 39.5 v -39.5 z m 40.5,0 v 39.5 h 79 v -39.5 z m 80,0 v 39.5 h 39.5 v -39.5 z m -120.5,40.5 v 79 h 39.5 v -79 z m 40.5,0 v 79 h 79 v -79 z m 80,0 v 79 h 39.5 v -79 z m -120.5,80 v 39.5 h 39.5 v -39.5 z m 40.5,0 v 39.5 h 79 v -39.5 z m 80,0 v 39.5 h 39.5 v -39.5 z" />
    <path
       id="path26924"
       style="overflow:visible;fill:#000000;fill-opacity:1;stroke-width:12;stroke-dashoffset:10;paint-order:stroke fill markers"
       d="m -397,-121.75 v 40 h 40 v -40 z m 41,0 v 40 h 80 v -40 z m 81,0 v 40 h 40 v -40 z m -122,41 v 80 h 40 v -80 z m 41,0 v 80 h 80 v -80 z m 81,0 v 80 h 40 v -80 z m -122,81 v 40 h 40 v -40 z m 41,0 v 40 h 80 v -40 z m 81,0 v 40 h 40 v -40 z" />
    <path
       id="path26930"
       style="overflow:visible;fill:#000000;fill-opacity:1;stroke-width:12;stroke-dashoffset:10;paint-order:stroke fill markers"
       d="m -229.5,-121.25 v 40.5 h 40.5 v -40.5 z m 41.5,0 v 40.5 h 81 v -40.5 z m 82,0 v 40.5 h 40.5 v -40.5 z m -123.5,41.5 v 81 h 40.5 v -81 z m 41.5,0 v 81 h 81 v -81 z m 82,0 v 81 h 40.5 v -81 z m -123.5,82 v 40.5 H -189 V 2.25 Z m 41.5,0 v 40.5 h 81 V 2.25 Z m 82,0 v 40.5 h 40.5 V 2.25 Z" />
    <path
       id="path26936"
       style="overflow:visible;fill:#000000;fill-opacity:1;stroke-width:12;stroke-dashoffset:10;paint-order:stroke fill markers"
       d="m -888,50.25 v 41 h 41 v -41 z m 42,0 v 41 h 82 v -41 z m 83,0 v 41 h 41 v -41 z m -125,42 v 82 h 41 v -82 z m 42,0 v 82 h 82 v -82 z m 83,0 v 82 h 41 v -82 z m -125,83 v 41 h 41 v -41 z m 42,0 v 41 h 82 v -41 z m 83,0 v 41 h 41 v -41 z" />
    <path
       id="path29118"
       style="overflow:visible;fill:#000000;fill-opacity:1;stroke-width:12.0002;stroke-dashoffset:10;paint-order:stroke fill markers"
       d="m -715.5,49.75 v 41.5 h 41.5 v -41.5 z m 42.5,0 v 41.5 h 83 v -41.5 z m 84,0 v 41.5 h 41.5 v -41.5 z m -126.5,42.5 v 83 h 41.5 v -83 z m 42.5,0 v 83 h 83 v -83 z m 84,0 v 83 h 41.5 v -83 z m -126.5,84 v 41.5 h 41.5 v -41.5 z m 42.5,0 v 41.5 h 83 v -41.5 z m 84,0 v 41.5 h 41.5 v -41.5 z" />
    <path
       id="path29134"
       style="overflow:visible;fill:#000000;fill-opacity:1;stroke-width:12;stroke-dashoffset:10;paint-order:stroke fill markers"
       d="m -541,50.25 v 42 h 42 v -42 z m 43,0 v 42 h 84 v -42 z m 85,0 v 42 h 42 v -42 z m -128,43 v 84 h 42 v -84 z m 43,0 v 84 h 84 v -84 z m 85,0 v 84 h 42 v -84 z m -128,85 v 42 h 42 v -42 z m 43,0 v 42 h 84 v -42 z m 85,0 v 42 h 42 v -42 z" />
    <path
       id="path29140"
       style="overflow:visible;fill:#000000;fill-opacity:1;stroke-width:12;stroke-dashoffset:10;paint-order:stroke fill markers"
       d="m -364.5,50.75 v 42.5 h 42.5 v -42.5 z m 43.5,0 v 42.5 h 85 v -42.5 z m 86,0 v 42.5 h 42.5 v -42.5 z m -129.5,43.5 v 85 h 42.5 v -85 z m 43.5,0 v 85 h 85 v -85 z m 86,0 v 85 h 42.5 v -85 z m -129.5,86 v 42.5 h 42.5 v -42.5 z m 43.5,0 v 42.5 h 85 v -42.5 z m 86,0 v 42.5 h 42.5 v -42.5 z" />
    <path
       id="path29146"
       style="overflow:visible;fill:#000000;fill-opacity:1;stroke-width:12;stroke-dashoffset:10;paint-order:stroke fill markers"
       d="m -186,50.25 v 43 h 43 v -43 z m 44,0 v 43 h 86 v -43 z m 87,0 v 43 h 43 v -43 z m -131,44 v 86 h 43 v -86 z m 44,0 v 86 h 86 v -86 z m 87,0 v 86 h 43 v -86 z m -131,87 v 43 h 43 v -43 z m 44,0 v 43 h 86 v -43 z m 87,0 v 43 h 43 v -43 z" />
    <path
       id="path30454"
       style="overflow:visible;fill:#000000;fill-opacity:1;stroke-width:12.0002;stroke-dashoffset:10;paint-order:stroke fill markers"
       d="m -887.5,232.75 v 43.5 h 43.5 v -43.5 z m 44.5,0 v 43.5 h 87 v -43.5 z m 88,0 v 43.5 h 43.5 v -43.5 z m -132.5,44.5 v 87 h 43.5 v -87 z m 44.5,0 v 87 h 87 v -87 z m 88,0 v 87 h 43.5 v -87 z m -132.5,88 v 43.5 h 43.5 v -43.5 z m 44.5,0 v 43.5 h 87 v -43.5 z m 88,0 v 43.5 h 43.5 v -43.5 z" />
    <path
       id="path31017"
       style="overflow:visible;fill:#000000;fill-opacity:1;stroke-width:11.9999;stroke-dashoffset:10;paint-order:stroke fill markers"
       d="m -705,233.25 v 44 h 44 v -44 z m 45,0 v 44 h 88 v -44 z m 89,0 v 44 h 44 v -44 z m -134,45 v 88 h 44 v -88 z m 45,0 v 88 h 88 v -88 z m 89,0 v 88 h 44 v -88 z m -134,89 v 44 h 44 v -44 z m 45,0 v 44 h 88 v -44 z m 89,0 v 44 h 44 v -44 z" />
    <path
       id="path31023"
       style="overflow:visible;fill:#000000;fill-opacity:1;stroke-width:11.9999;stroke-dashoffset:10;paint-order:stroke fill markers"
       d="m -520.5,232.75 v 44.5 h 44.5 v -44.5 z m 45.5,0 v 44.5 h 89 v -44.5 z m 90,0 v 44.5 h 44.5 v -44.5 z m -135.5,45.5 v 89 h 44.5 v -89 z m 45.5,0 v 89 h 89 v -89 z m 90,0 v 89 h 44.5 v -89 z m -135.5,90 v 44.5 h 44.5 v -44.5 z m 45.5,0 v 44.5 h 89 v -44.5 z m 90,0 v 44.5 h 44.5 v -44.5 z" />
    <path
       id="path31029"
       style="overflow:visible;fill:#000000;fill-opacity:1;stroke-width:11.9999;stroke-dashoffset:10;paint-order:stroke fill markers"
       d="m -334,233.25 v 45 h 45 v -45 z m 46,0 v 45 h 90 v -45 z m 91,0 v 45 h 45 v -45 z m -137,46 v 90 h 45 v -90 z m 46,0 v 90 h 90 v -90 z m 91,0 v 90 h 45 v -90 z m -137,91 v 45 h 45 v -45 z m 46,0 v 45 h 90 v -45 z m 91,0 v 45 h 45 v -45 z" />
    <path
       id="path31035"
       style="overflow:visible;fill:#000000;fill-opacity:1;stroke-width:11.9999;stroke-dashoffset:10;paint-order:stroke fill markers"
       d="m -145.5,232.75 v 45.5 h 45.5 v -45.5 z m 46.5,0 v 45.5 h 91 v -45.5 z m 92,0 v 45.5 h 45.5 v -45.5 z m -138.5,46.5 v 91 h 45.5 v -91 z m 46.5,0 v 91 h 91 v -91 z m 92,0 v 91 h 45.5 v -91 z m -138.5,92 v 45.5 h 45.5 v -45.5 z m 46.5,0 v 45.5 h 91 v -45.5 z m 92,0 v 45.5 h 45.5 v -45.5 z" />
    <path
       id="path31041"
       style="overflow:visible;fill:#000000;fill-opacity:1;stroke-width:11.9999;stroke-dashoffset:10;paint-order:stroke fill markers"
       d="m -888,425.25 v 46 h 46 v -46 z m 47,0 v 46 h 92 v -46 z m 93,0 v 46 h 46 v -46 z m -140,47 v 92 h 46 v -92 z m 47,0 v 92 h 92 v -92 z m 93,0 v 92 h 46 v -92 z m -140,93 v 46 h 46 v -46 z m 47,0 v 46 h 92 v -46 z m 93,0 v 46 h 46 v -46 z" />
    <path
       id="path31047"
       style="overflow:visible;fill:#000000;fill-opacity:1;stroke-width:12;stroke-dashoffset:10;paint-order:stroke fill markers"
       d="m -695.5,424.75 v 46.5 h 46.5 v -46.5 z m 47.5,0 v 46.5 h 93 v -46.5 z m 94,0 v 46.5 h 46.5 v -46.5 z m -141.5,47.5 v 93 h 46.5 v -93 z m 47.5,0 v 93 h 93 v -93 z m 94,0 v 93 h 46.5 v -93 z m -141.5,94 v 46.5 h 46.5 v -46.5 z m 47.5,0 v 46.5 h 93 v -46.5 z m 94,0 v 46.5 h 46.5 v -46.5 z" />
    <path
       id="path31053"
       style="overflow:visible;fill:#000000;fill-opacity:1;stroke-width:11.9999;stroke-dashoffset:10;paint-order:stroke fill markers"
       d="m -501,425.25 v 47 h 47 v -47 z m 48,0 v 47 h 94 v -47 z m 95,0 v 47 h 47 v -47 z m -143,48 v 94 h 47 v -94 z m 48,0 v 94 h 94 v -94 z m 95,0 v 94 h 47 v -94 z m -143,95 v 47 h 47 v -47 z m 48,0 v 47 h 94 v -47 z m 95,0 v 47 h 47 v -47 z" />
    <path
       id="path31059"
       style="overflow:visible;fill:#000000;fill-opacity:1;stroke-width:11.9999;stroke-dashoffset:10;paint-order:stroke fill markers"
       d="m -304.5,424.75 v 47.5 h 47.5 v -47.5 z m 48.5,0 v 47.5 h 95 v -47.5 z m 96,0 v 47.5 h 47.5 v -47.5 z m -144.5,48.5 v 95 h 47.5 v -95 z m 48.5,0 v 95 h 95 v -95 z m 96,0 v 95 h 47.5 v -95 z m -144.5,96 v 47.5 h 47.5 v -47.5 z m 48.5,0 v 47.5 h 95 v -47.5 z m 96,0 v 47.5 h 47.5 v -47.5 z" />
    <path
       id="path31065"
       style="overflow:visible;fill:#000000;fill-opacity:1;stroke-width:12;stroke-dashoffset:10;paint-order:stroke fill markers"
       d="m -106,425.25 v 48 h 48 v -48 z m 49,0 v 48 h 96 v -48 z m 97,0 v 48 h 48 v -48 z m -146,49 v 96 h 48 v -96 z m 49,0 v 96 h 96 v -96 z m 97,0 v 96 h 48 v -96 z m -146,97 v 48 h 48 v -48 z m 49,0 v 48 h 96 v -48 z m 97,0 v 48 h 48 v -48 z" />
    <path
       id="path31071"
       style="overflow:visible;fill:#000000;fill-opacity:1;stroke-width:11.9999;stroke-dashoffset:10;paint-order:stroke fill markers"
       d="m -887.5,626.75 v 48.5 h 48.5 v -48.5 z m 49.5,0 v 48.5 h 97 v -48.5 z m 98,0 v 48.5 h 48.5 v -48.5 z m -147.5,49.5 v 97 h 48.5 v -97 z m 49.5,0 v 97 h 97 v -97 z m 98,0 v 97 h 48.5 v -97 z m -147.5,98 v 48.5 h 48.5 v -48.5 z m 49.5,0 v 48.5 h 97 v -48.5 z m 98,0 v 48.5 h 48.5 v -48.5 z" />
    <path
       id="path31077"
       style="overflow:visible;fill:#000000;fill-opacity:1;stroke-width:12;stroke-dashoffset:10;paint-order:stroke fill markers"
       d="m -685,626.25 v 49 h 49 v -49 z m 50,0 v 49 h 98 v -49 z m 99,0 v 49 h 49 v -49 z m -149,50 v 98 h 49 v -98 z m 50,0 v 98 h 98 v -98 z m 99,0 v 98 h 49 v -98 z m -149,99 v 49 h 49 v -49 z m 50,0 v 49 h 98 v -49 z m 99,0 v 49 h 49 v -49 z" />
    <path
       id="path31083"
       style="overflow:visible;fill:#000000;fill-opacity:1;stroke-width:11.9999;stroke-dashoffset:10;paint-order:stroke fill markers"
       d="m -480.5,626.75 v 49.5 h 49.5 v -49.5 z m 50.5,0 v 49.5 h 99 v -49.5 z m 100,0 v 49.5 h 49.5 v -49.5 z m -150.5,50.5 v 99 h 49.5 v -99 z m 50.5,0 v 99 h 99 v -99 z m 100,0 v 99 h 49.5 v -99 z m -150.5,100 v 49.5 h 49.5 v -49.5 z m 50.5,0 v 49.5 h 99 v -49.5 z m 100,0 v 49.5 h 49.5 v -49.5 z" />
    <path
       id="path31089"
       style="overflow:visible;fill:#000000;fill-opacity:1;stroke-width:11.9999;stroke-dashoffset:10;paint-order:stroke fill markers"
       d="m -274,626.25 v 50 h 50 v -50 z m 51,0 v 50 h 100 v -50 z m 101,0 v 50 h 50 v -50 z m -152,51 v 100 h 50 v -100 z m 51,0 v 100 h 100 v -100 z m 101,0 v 100 h 50 v -100 z m -152,101 v 50 h 50 v -50 z m 51,0 v 50 h 100 v -50 z m 101,0 v 50 h 50 v -50 z" />
  </g>
  <metadata
     id="metadata130443">
    <rdf:RDF>
      <cc:Work
         rdf:about="">
        <dc:creator>
          <cc:Agent>
            <dc:title>Roberto Mocci</dc:title>
          </cc:Agent>
        </dc:creator>
        <dc:rights>
          <cc:Agent>
            <dc:title>public domain</dc:title>
          </cc:Agent>
        </dc:rights>
        <dc:coverage>https://patreon.com/rmocci</dc:coverage>
        <cc:license
           rdf:resource="http://creativecommons.org/publicdomain/zero/1.0/" />
        <dc:title>Grid fill</dc:title>
      </cc:Work>
      <cc:License
         rdf:about="http://creativecommons.org/publicdomain/zero/1.0/">
        <cc:permits
           rdf:resource="http://creativecommons.org/ns#Reproduction" />
        <cc:permits
           rdf:resource="http://creativecommons.org/ns#Distribution" />
        <cc:permits
           rdf:resource="http://creativecommons.org/ns#DerivativeWorks" />
      </cc:License>
    </rdf:RDF>
  </metadata>
</svg>
