<?xml version="1.0" encoding="UTF-8" standalone="no"?>

<!-- Made by Rob Mocci for A.V.R. -->
<!-- https://patreon.com/rmocci -->

<svg
   width="330"
   height="870"
   viewBox="0 0 330 870"
   version="1.1"
   sodipodi:docname="stripe_pattern_draw.svg"
   id="svg17"
   inkscape:version="1.1 (c68e22c387, 2021-05-23)"
   xmlns:inkscape="http://www.inkscape.org/namespaces/inkscape"
   xmlns:sodipodi="http://sodipodi.sourceforge.net/DTD/sodipodi-0.dtd"
   xmlns="http://www.w3.org/2000/svg"
   xmlns:svg="http://www.w3.org/2000/svg"
   xmlns:rdf="http://www.w3.org/1999/02/22-rdf-syntax-ns#"
   xmlns:cc="http://creativecommons.org/ns#"
   xmlns:dc="http://purl.org/dc/elements/1.1/">
  <defs
     id="defs19" />
  <sodipodi:namedview
     pagecolor="#ffffff"
     bordercolor="#2a2a2a"
     borderopacity="1"
     inkscape:pageshadow="0"
     inkscape:pageopacity="0"
     inkscape:pagecheckerboard="false"
     inkscape:showpageshadow="false"
     inkscape:document-units="px"
     showgrid="false"
     units="px"
     width="750px"
     height="1140px"
     borderlayer="true"
     inkscape:zoom="1"
     inkscape:cx="370"
     inkscape:cy="694.5"
     inkscape:current-layer="bg"
     id="namedview2"
     objecttolerance="10.0"
     gridtolerance="10.0"
     guidetolerance="10.0"
     showborder="false"
     inkscape:window-width="1303"
     inkscape:window-height="745"
     inkscape:window-x="55"
     inkscape:window-y="-8"
     inkscape:window-maximized="1"
     fit-margin-top="0"
     fit-margin-left="0"
     fit-margin-right="0"
     fit-margin-bottom="0"
     inkscape:snap-global="false" />
  <g
     inkscape:label="Background"
     inkscape:groupmode="layer"
     id="bg"
     transform="translate(1028,696)">
    <path
       id="path7071"
       style="color:#000000;overflow:visible;fill:#000000;fill-opacity:1;stroke:none;stroke-width:12;stroke-dashoffset:10;paint-order:stroke fill markers"
       d="m -1009,-668.5 v 0.5 h 24 v -0.5 z m 0,1.5 v 0.5 h 24 v -0.5 z" />
    <path
       id="path7073"
       style="color:#000000;overflow:visible;fill:#000000;fill-opacity:1;stroke:none;stroke-width:12;stroke-dashoffset:10;paint-order:stroke fill markers"
       d="m -979,-668.5 v 0.5 h 24 v -0.5 z m 0,2.5 v 0.5 h 24 v -0.5 z" />
    <path
       id="path7075"
       style="color:#000000;overflow:visible;fill:#000000;fill-opacity:1;stroke:none;stroke-width:12;stroke-dashoffset:10;paint-order:stroke fill markers"
       d="m -949,-668.5 v 0.5 h 24 v -0.5 z m 0,3.5 v 0.5 h 24 v -0.5 z" />
    <path
       id="path7077"
       style="color:#000000;overflow:visible;fill:#000000;fill-opacity:1;stroke:none;stroke-width:12;stroke-dashoffset:10;paint-order:stroke fill markers"
       d="m -919,-668.5 v 0.5 h 24 v -0.5 z m 0,4.5 v 0.5 h 24 v -0.5 z" />
    <path
       id="path7079"
       style="color:#000000;overflow:visible;fill:#000000;fill-opacity:1;stroke:none;stroke-width:12;stroke-dashoffset:10;paint-order:stroke fill markers"
       d="m -889,-668.5 v 0.5 h 24 v -0.5 z m 0,5.5 v 0.5 h 24 v -0.5 z" />
    <path
       id="path7081"
       style="color:#000000;overflow:visible;fill:#000000;fill-opacity:1;stroke:none;stroke-width:12;stroke-dashoffset:10;paint-order:stroke fill markers"
       d="m -859,-668.5 v 0.5 h 24 v -0.5 z m 0,6.5 v 0.5 h 24 v -0.5 z" />
    <path
       id="path7083"
       style="color:#000000;overflow:visible;fill:#000000;fill-opacity:1;stroke:none;stroke-width:12;stroke-dashoffset:10;paint-order:stroke fill markers"
       d="m -829,-668.5 v 0.5 h 24 v -0.5 z m 0,7.5 v 0.5 h 24 v -0.5 z" />
    <path
       id="path7085"
       style="color:#000000;overflow:visible;fill:#000000;fill-opacity:1;stroke:none;stroke-width:12;stroke-dashoffset:10;paint-order:stroke fill markers"
       d="m -799,-668.5 v 0.5 h 24 v -0.5 z m 0,8.5 v 0.5 h 24 v -0.5 z" />
    <path
       id="path7087"
       style="color:#000000;overflow:visible;fill:#000000;fill-opacity:1;stroke:none;stroke-width:12;stroke-dashoffset:10;paint-order:stroke fill markers"
       d="m -769,-668.5 v 0.5 h 24 v -0.5 z m 0,9.5 v 0.5 h 24 v -0.5 z" />
    <path
       id="path7089"
       style="color:#000000;overflow:visible;fill:#000000;fill-opacity:1;stroke:none;stroke-width:12;stroke-dashoffset:10;paint-order:stroke fill markers"
       d="m -739,-668.5 v 0.5 h 24 v -0.5 z m 0,10.5 v 0.5 h 24 v -0.5 z" />
    <path
       id="path7091"
       style="color:#000000;overflow:visible;fill:#000000;fill-opacity:1;stroke:none;stroke-width:12;stroke-dashoffset:10;paint-order:stroke fill markers"
       d="m -1009,-628.5 v 0.5 h 24 v -0.5 z m 0,11.5 v 0.5 h 24 v -0.5 z" />
    <path
       id="path7093"
       style="color:#000000;overflow:visible;fill:#000000;fill-opacity:1;stroke:none;stroke-width:12;stroke-dashoffset:10;paint-order:stroke fill markers"
       d="m -979,-628.5 v 0.5 h 24 v -0.5 z m 0,12.5 v 0.5 h 24 v -0.5 z" />
    <path
       id="path7095"
       style="color:#000000;overflow:visible;fill:#000000;fill-opacity:1;stroke:none;stroke-width:12;stroke-dashoffset:10;paint-order:stroke fill markers"
       d="m -949,-628.5 v 0.5 h 24 v -0.5 z m 0,13.5 v 0.5 h 24 v -0.5 z" />
    <path
       id="path7097"
       style="color:#000000;overflow:visible;fill:#000000;fill-opacity:1;stroke:none;stroke-width:12;stroke-dashoffset:10;paint-order:stroke fill markers"
       d="m -919,-628.5 v 0.5 h 24 v -0.5 z m 0,14.5 v 0.5 h 24 v -0.5 z" />
    <path
       id="path7099"
       style="color:#000000;overflow:visible;fill:#000000;fill-opacity:1;stroke:none;stroke-width:12;stroke-dashoffset:10;paint-order:stroke fill markers"
       d="m -889,-628.5 v 0.5 h 24 v -0.5 z m 0,15.5 v 0.5 h 24 v -0.5 z" />
    <path
       id="path7101"
       style="color:#000000;overflow:visible;fill:#000000;fill-opacity:1;stroke:none;stroke-width:12;stroke-dashoffset:10;paint-order:stroke fill markers"
       d="m -859,-628.5 v 0.5 h 24 v -0.5 z m 0,16.5 v 0.5 h 24 v -0.5 z" />
    <path
       id="path7103"
       style="color:#000000;overflow:visible;fill:#000000;fill-opacity:1;stroke:none;stroke-width:12;stroke-dashoffset:10;paint-order:stroke fill markers"
       d="m -829,-628.5 v 0.5 h 24 v -0.5 z m 0,17.5 v 0.5 h 24 v -0.5 z" />
    <path
       id="path7105"
       style="color:#000000;overflow:visible;fill:#000000;fill-opacity:1;stroke:none;stroke-width:12;stroke-dashoffset:10;paint-order:stroke fill markers"
       d="m -799,-628.5 v 0.5 h 24 v -0.5 z m 0,18.5 v 0.5 h 24 v -0.5 z" />
    <path
       id="path7107"
       style="color:#000000;overflow:visible;fill:#000000;fill-opacity:1;stroke:none;stroke-width:12;stroke-dashoffset:10;paint-order:stroke fill markers"
       d="m -769,-628.5 v 0.5 h 24 v -0.5 z m 0,19.5 v 0.5 h 24 v -0.5 z" />
    <path
       id="path7109"
       style="color:#000000;overflow:visible;fill:#000000;fill-opacity:1;stroke:none;stroke-width:12;stroke-dashoffset:10;paint-order:stroke fill markers"
       d="m -739,-628.5 v 0.5 h 24 v -0.5 z m 0,20.5 v 0.5 h 24 v -0.5 z" />
    <path
       id="path7111"
       style="color:#000000;overflow:visible;fill:#000000;fill-opacity:1;stroke:none;stroke-width:12;stroke-dashoffset:10;paint-order:stroke fill markers"
       d="m -1009,-578.5 v 0.5 h 24 v -0.5 z m 0,21.5 v 0.5 h 24 v -0.5 z" />
    <path
       id="path7113"
       style="color:#000000;overflow:visible;fill:#000000;fill-opacity:1;stroke:none;stroke-width:12;stroke-dashoffset:10;paint-order:stroke fill markers"
       d="m -979,-578.5 v 0.5 h 24 v -0.5 z m 0,22.5 v 0.5 h 24 v -0.5 z" />
    <path
       id="path7115"
       style="color:#000000;overflow:visible;fill:#000000;fill-opacity:1;stroke:none;stroke-width:12;stroke-dashoffset:10;paint-order:stroke fill markers"
       d="m -949,-578.5 v 0.5 h 24 v -0.5 z m 0,23.5 v 0.5 h 24 v -0.5 z" />
    <path
       id="path7117"
       style="color:#000000;overflow:visible;fill:#000000;fill-opacity:1;stroke:none;stroke-width:12;stroke-dashoffset:10;paint-order:stroke fill markers"
       d="m -919,-578.5 v 0.5 h 24 v -0.5 z m 0,24.5 v 0.5 h 24 v -0.5 z" />
    <path
       id="path7119"
       style="color:#000000;overflow:visible;fill:#000000;fill-opacity:1;stroke:none;stroke-width:12;stroke-dashoffset:10;paint-order:stroke fill markers"
       d="m -889,-578.5 v 0.5 h 24 v -0.5 z m 0,25.5 v 0.5 h 24 v -0.5 z" />
    <path
       id="path7121"
       style="color:#000000;overflow:visible;fill:#000000;fill-opacity:1;stroke:none;stroke-width:12;stroke-dashoffset:10;paint-order:stroke fill markers"
       d="m -859,-578.5 v 0.5 h 24 v -0.5 z m 0,26.5 v 0.5 h 24 v -0.5 z" />
    <path
       id="path7123"
       style="color:#000000;overflow:visible;fill:#000000;fill-opacity:1;stroke:none;stroke-width:12;stroke-dashoffset:10;paint-order:stroke fill markers"
       d="m -829,-578.5 v 0.5 h 24 v -0.5 z m 0,27.5 v 0.5 h 24 v -0.5 z" />
    <path
       id="path7125"
       style="color:#000000;overflow:visible;fill:#000000;fill-opacity:1;stroke:none;stroke-width:12;stroke-dashoffset:10;paint-order:stroke fill markers"
       d="m -799,-578.5 v 0.5 h 24 v -0.5 z m 0,28.5 v 0.5 h 24 v -0.5 z" />
    <path
       id="path7127"
       style="color:#000000;overflow:visible;fill:#000000;fill-opacity:1;stroke:none;stroke-width:12;stroke-dashoffset:10;paint-order:stroke fill markers"
       d="m -769,-578.5 v 0.5 h 24 v -0.5 z m 0,29.5 v 0.5 h 24 v -0.5 z" />
    <path
       id="path7129"
       style="color:#000000;overflow:visible;fill:#000000;fill-opacity:1;stroke:none;stroke-width:12;stroke-dashoffset:10;paint-order:stroke fill markers"
       d="m -739,-578.5 v 0.5 h 24 v -0.5 z m 0,30.5 v 0.5 h 24 v -0.5 z" />
    <path
       id="path7131"
       style="color:#000000;overflow:visible;fill:#000000;fill-opacity:1;stroke:none;stroke-width:12;stroke-dashoffset:10;paint-order:stroke fill markers"
       d="m -1009,-518.5 v 0.5 h 24 v -0.5 z m 0,31.5 v 0.5 h 24 v -0.5 z" />
    <path
       id="path7133"
       style="color:#000000;overflow:visible;fill:#000000;fill-opacity:1;stroke:none;stroke-width:12;stroke-dashoffset:10;paint-order:stroke fill markers"
       d="m -979,-518.5 v 0.5 h 24 v -0.5 z m 0,32.5 v 0.5 h 24 v -0.5 z" />
    <path
       id="path7135"
       style="color:#000000;overflow:visible;fill:#000000;fill-opacity:1;stroke:none;stroke-width:12;stroke-dashoffset:10;paint-order:stroke fill markers"
       d="m -949,-518.5 v 0.5 h 24 v -0.5 z m 0,33.5 v 0.5 h 24 v -0.5 z" />
    <path
       id="path7137"
       style="color:#000000;overflow:visible;fill:#000000;fill-opacity:1;stroke:none;stroke-width:12;stroke-dashoffset:10;paint-order:stroke fill markers"
       d="m -919,-518.5 v 0.5 h 24 v -0.5 z m 0,34.5 v 0.5 h 24 v -0.5 z" />
    <path
       id="path7139"
       style="color:#000000;overflow:visible;fill:#000000;fill-opacity:1;stroke:none;stroke-width:12;stroke-dashoffset:10;paint-order:stroke fill markers"
       d="m -889,-518.5 v 0.5 h 24 v -0.5 z m 0,35.5 v 0.5 h 24 v -0.5 z" />
    <path
       id="path7141"
       style="color:#000000;overflow:visible;fill:#000000;fill-opacity:1;stroke:none;stroke-width:12;stroke-dashoffset:10;paint-order:stroke fill markers"
       d="m -859,-518.5 v 0.5 h 24 v -0.5 z m 0,36.5 v 0.5 h 24 v -0.5 z" />
    <path
       id="path7143"
       style="color:#000000;overflow:visible;fill:#000000;fill-opacity:1;stroke:none;stroke-width:12;stroke-dashoffset:10;paint-order:stroke fill markers"
       d="m -829,-518.5 v 0.5 h 24 v -0.5 z m 0,37.5 v 0.5 h 24 v -0.5 z" />
    <path
       id="path7145"
       style="color:#000000;overflow:visible;fill:#000000;fill-opacity:1;stroke:none;stroke-width:12;stroke-dashoffset:10;paint-order:stroke fill markers"
       d="m -799,-518.5 v 0.5 h 24 v -0.5 z m 0,38.5 v 0.5 h 24 v -0.5 z" />
    <path
       id="path7147"
       style="color:#000000;overflow:visible;fill:#000000;fill-opacity:1;stroke:none;stroke-width:12;stroke-dashoffset:10;paint-order:stroke fill markers"
       d="m -769,-518.5 v 0.5 h 24 v -0.5 z m 0,39.5 v 0.5 h 24 v -0.5 z" />
    <path
       id="path7149"
       style="color:#000000;overflow:visible;fill:#000000;fill-opacity:1;stroke:none;stroke-width:12;stroke-dashoffset:10;paint-order:stroke fill markers"
       d="m -739,-518.5 v 0.5 h 24 v -0.5 z m 0,40.5 v 0.5 h 24 v -0.5 z" />
    <path
       id="path7151"
       style="color:#000000;overflow:visible;fill:#000000;fill-opacity:1;stroke:none;stroke-width:12;stroke-dashoffset:10;paint-order:stroke fill markers"
       d="m -1009,-448.5 v 0.5 h 24 v -0.5 z m 0,41.5 v 0.5 h 24 v -0.5 z" />
    <path
       id="path7153"
       style="color:#000000;overflow:visible;fill:#000000;fill-opacity:1;stroke:none;stroke-width:12;stroke-dashoffset:10;paint-order:stroke fill markers"
       d="m -979,-448.5 v 0.5 h 24 v -0.5 z m 0,42.5 v 0.5 h 24 v -0.5 z" />
    <path
       id="path7155"
       style="color:#000000;overflow:visible;fill:#000000;fill-opacity:1;stroke:none;stroke-width:12;stroke-dashoffset:10;paint-order:stroke fill markers"
       d="m -949,-448.5 v 0.5 h 24 v -0.5 z m 0,43.5 v 0.5 h 24 v -0.5 z" />
    <path
       id="path7157"
       style="color:#000000;overflow:visible;fill:#000000;fill-opacity:1;stroke:none;stroke-width:12;stroke-dashoffset:10;paint-order:stroke fill markers"
       d="m -919,-448.5 v 0.5 h 24 v -0.5 z m 0,44.5 v 0.5 h 24 v -0.5 z" />
    <path
       id="path7159"
       style="color:#000000;overflow:visible;fill:#000000;fill-opacity:1;stroke:none;stroke-width:12;stroke-dashoffset:10;paint-order:stroke fill markers"
       d="m -889,-448.5 v 0.5 h 24 v -0.5 z m 0,45.5 v 0.5 h 24 v -0.5 z" />
    <path
       id="path7161"
       style="color:#000000;overflow:visible;fill:#000000;fill-opacity:1;stroke:none;stroke-width:12;stroke-dashoffset:10;paint-order:stroke fill markers"
       d="m -859,-448.5 v 0.5 h 24 v -0.5 z m 0,46.5 v 0.5 h 24 v -0.5 z" />
    <path
       id="path7163"
       style="color:#000000;overflow:visible;fill:#000000;fill-opacity:1;stroke:none;stroke-width:12;stroke-dashoffset:10;paint-order:stroke fill markers"
       d="m -829,-448.5 v 0.5 h 24 v -0.5 z m 0,47.5 v 0.5 h 24 v -0.5 z" />
    <path
       id="path7165"
       style="color:#000000;overflow:visible;fill:#000000;fill-opacity:1;stroke:none;stroke-width:12;stroke-dashoffset:10;paint-order:stroke fill markers"
       d="m -799,-448.5 v 0.5 h 24 v -0.5 z m 0,48.5 v 0.5 h 24 v -0.5 z" />
    <path
       id="path7167"
       style="color:#000000;overflow:visible;fill:#000000;fill-opacity:1;stroke:none;stroke-width:12;stroke-dashoffset:10;paint-order:stroke fill markers"
       d="m -769,-448.5 v 0.5 h 24 v -0.5 z m 0,49.5 v 0.5 h 24 v -0.5 z" />
    <path
       id="path7169"
       style="color:#000000;overflow:visible;fill:#000000;fill-opacity:1;stroke:none;stroke-width:12;stroke-dashoffset:10;paint-order:stroke fill markers"
       d="m -739,-448.5 v 0.5 h 24 v -0.5 z m 0,50.5 v 0.5 h 24 v -0.5 z" />
    <path
       id="path7171"
       style="color:#000000;overflow:visible;fill:#000000;fill-opacity:1;stroke:none;stroke-width:12;stroke-dashoffset:10;paint-order:stroke fill markers"
       d="m -1009,-368.5 v 0.5 h 24 v -0.5 z m 0,51.5 v 0.5 h 24 v -0.5 z" />
    <path
       id="path7173"
       style="color:#000000;overflow:visible;fill:#000000;fill-opacity:1;stroke:none;stroke-width:12;stroke-dashoffset:10;paint-order:stroke fill markers"
       d="m -979,-368.5 v 0.5 h 24 v -0.5 z m 0,52.5 v 0.5 h 24 v -0.5 z" />
    <path
       id="path7175"
       style="color:#000000;overflow:visible;fill:#000000;fill-opacity:1;stroke:none;stroke-width:12;stroke-dashoffset:10;paint-order:stroke fill markers"
       d="m -949,-368.5 v 0.5 h 24 v -0.5 z m 0,53.5 v 0.5 h 24 v -0.5 z" />
    <path
       id="path7177"
       style="color:#000000;overflow:visible;fill:#000000;fill-opacity:1;stroke:none;stroke-width:12;stroke-dashoffset:10;paint-order:stroke fill markers"
       d="m -919,-368.5 v 0.5 h 24 v -0.5 z m 0,54.5 v 0.5 h 24 v -0.5 z" />
    <path
       id="path7179"
       style="color:#000000;overflow:visible;fill:#000000;fill-opacity:1;stroke:none;stroke-width:12;stroke-dashoffset:10;paint-order:stroke fill markers"
       d="m -889,-368.5 v 0.5 h 24 v -0.5 z m 0,55.5 v 0.5 h 24 v -0.5 z" />
    <path
       id="path7181"
       style="color:#000000;overflow:visible;fill:#000000;fill-opacity:1;stroke:none;stroke-width:12;stroke-dashoffset:10;paint-order:stroke fill markers"
       d="m -859,-368.5 v 0.5 h 24 v -0.5 z m 0,56.5 v 0.5 h 24 v -0.5 z" />
    <path
       id="path7183"
       style="color:#000000;overflow:visible;fill:#000000;fill-opacity:1;stroke:none;stroke-width:12;stroke-dashoffset:10;paint-order:stroke fill markers"
       d="m -829,-368.5 v 0.5 h 24 v -0.5 z m 0,57.5 v 0.5 h 24 v -0.5 z" />
    <path
       id="path7185"
       style="color:#000000;overflow:visible;fill:#000000;fill-opacity:1;stroke:none;stroke-width:12;stroke-dashoffset:10;paint-order:stroke fill markers"
       d="m -799,-368.5 v 0.5 h 24 v -0.5 z m 0,58.5 v 0.5 h 24 v -0.5 z" />
    <path
       id="path7187"
       style="color:#000000;overflow:visible;fill:#000000;fill-opacity:1;stroke:none;stroke-width:12;stroke-dashoffset:10;paint-order:stroke fill markers"
       d="m -769,-368.5 v 0.5 h 24 v -0.5 z m 0,59.5 v 0.5 h 24 v -0.5 z" />
    <path
       id="path7189"
       style="color:#000000;overflow:visible;fill:#000000;fill-opacity:1;stroke:none;stroke-width:12;stroke-dashoffset:10;paint-order:stroke fill markers"
       d="m -739,-368.5 v 0.5 h 24 v -0.5 z m 0,60.5 v 0.5 h 24 v -0.5 z" />
    <path
       id="path7191"
       style="color:#000000;overflow:visible;fill:#000000;fill-opacity:1;stroke:none;stroke-width:12;stroke-dashoffset:10;paint-order:stroke fill markers"
       d="m -1009,-278.5 v 0.5 h 24 v -0.5 z m 0,61.5 v 0.5 h 24 v -0.5 z" />
    <path
       id="path7193"
       style="color:#000000;overflow:visible;fill:#000000;fill-opacity:1;stroke:none;stroke-width:12;stroke-dashoffset:10;paint-order:stroke fill markers"
       d="m -979,-278.5 v 0.5 h 24 v -0.5 z m 0,62.5 v 0.5 h 24 v -0.5 z" />
    <path
       id="path7195"
       style="color:#000000;overflow:visible;fill:#000000;fill-opacity:1;stroke:none;stroke-width:12;stroke-dashoffset:10;paint-order:stroke fill markers"
       d="m -949,-278.5 v 0.5 h 24 v -0.5 z m 0,63.5 v 0.5 h 24 v -0.5 z" />
    <path
       id="path7197"
       style="color:#000000;overflow:visible;fill:#000000;fill-opacity:1;stroke:none;stroke-width:12;stroke-dashoffset:10;paint-order:stroke fill markers"
       d="m -919,-278.5 v 0.5 h 24 v -0.5 z m 0,64.5 v 0.5 h 24 v -0.5 z" />
    <path
       id="path7199"
       style="color:#000000;overflow:visible;fill:#000000;fill-opacity:1;stroke:none;stroke-width:12;stroke-dashoffset:10;paint-order:stroke fill markers"
       d="m -889,-278.5 v 0.5 h 24 v -0.5 z m 0,65.5 v 0.5 h 24 v -0.5 z" />
    <path
       id="path7201"
       style="color:#000000;overflow:visible;fill:#000000;fill-opacity:1;stroke:none;stroke-width:12;stroke-dashoffset:10;paint-order:stroke fill markers"
       d="m -859,-278.5 v 0.5 h 24 v -0.5 z m 0,66.5 v 0.5 h 24 v -0.5 z" />
    <path
       id="path7203"
       style="color:#000000;overflow:visible;fill:#000000;fill-opacity:1;stroke:none;stroke-width:12;stroke-dashoffset:10;paint-order:stroke fill markers"
       d="m -829,-278.5 v 0.5 h 24 v -0.5 z m 0,67.5 v 0.5 h 24 v -0.5 z" />
    <path
       id="path7205"
       style="color:#000000;overflow:visible;fill:#000000;fill-opacity:1;stroke:none;stroke-width:12;stroke-dashoffset:10;paint-order:stroke fill markers"
       d="m -799,-278.5 v 0.5 h 24 v -0.5 z m 0,68.5 v 0.5 h 24 v -0.5 z" />
    <path
       id="path7207"
       style="color:#000000;overflow:visible;fill:#000000;fill-opacity:1;stroke:none;stroke-width:12;stroke-dashoffset:10;paint-order:stroke fill markers"
       d="m -769,-278.5 v 0.5 h 24 v -0.5 z m 0,69.5 v 0.5 h 24 v -0.5 z" />
    <path
       id="path7209"
       style="color:#000000;overflow:visible;fill:#000000;fill-opacity:1;stroke:none;stroke-width:12;stroke-dashoffset:10;paint-order:stroke fill markers"
       d="m -739,-278.5 v 0.5 h 24 v -0.5 z m 0,70.5 v 0.5 h 24 v -0.5 z" />
    <path
       id="path7211"
       style="color:#000000;overflow:visible;fill:#000000;fill-opacity:1;stroke:none;stroke-width:12;stroke-dashoffset:10;paint-order:stroke fill markers"
       d="m -1009,-178.5 v 0.5 h 24 v -0.5 z m 0,71.5 v 0.5 h 24 v -0.5 z" />
    <path
       id="path7213"
       style="color:#000000;overflow:visible;fill:#000000;fill-opacity:1;stroke:none;stroke-width:12;stroke-dashoffset:10;paint-order:stroke fill markers"
       d="m -979,-178.5 v 0.5 h 24 v -0.5 z m 0,72.5 v 0.5 h 24 v -0.5 z" />
    <path
       id="path7215"
       style="color:#000000;overflow:visible;fill:#000000;fill-opacity:1;stroke:none;stroke-width:12;stroke-dashoffset:10;paint-order:stroke fill markers"
       d="m -949,-178.5 v 0.5 h 24 v -0.5 z m 0,73.5 v 0.5 h 24 v -0.5 z" />
    <path
       id="path7217"
       style="color:#000000;overflow:visible;fill:#000000;fill-opacity:1;stroke:none;stroke-width:12;stroke-dashoffset:10;paint-order:stroke fill markers"
       d="m -919,-178.5 v 0.5 h 24 v -0.5 z m 0,74.5 v 0.5 h 24 v -0.5 z" />
    <path
       id="path7219"
       style="color:#000000;overflow:visible;fill:#000000;fill-opacity:1;stroke:none;stroke-width:12;stroke-dashoffset:10;paint-order:stroke fill markers"
       d="m -889,-178.5 v 0.5 h 24 v -0.5 z m 0,75.5 v 0.5 h 24 v -0.5 z" />
    <path
       id="path7221"
       style="color:#000000;overflow:visible;fill:#000000;fill-opacity:1;stroke:none;stroke-width:12;stroke-dashoffset:10;paint-order:stroke fill markers"
       d="m -859,-178.5 v 0.5 h 24 v -0.5 z m 0,76.5 v 0.5 h 24 v -0.5 z" />
    <path
       id="path7223"
       style="color:#000000;overflow:visible;fill:#000000;fill-opacity:1;stroke:none;stroke-width:12;stroke-dashoffset:10;paint-order:stroke fill markers"
       d="m -829,-178.5 v 0.5 h 24 v -0.5 z m 0,77.5 v 0.5 h 24 v -0.5 z" />
    <path
       id="path7225"
       style="color:#000000;overflow:visible;fill:#000000;fill-opacity:1;stroke:none;stroke-width:12;stroke-dashoffset:10;paint-order:stroke fill markers"
       d="m -799,-178.5 v 0.5 h 24 v -0.5 z m 0,78.5 v 0.5 h 24 v -0.5 z" />
    <path
       id="path7227"
       style="color:#000000;overflow:visible;fill:#000000;fill-opacity:1;stroke:none;stroke-width:12;stroke-dashoffset:10;paint-order:stroke fill markers"
       d="m -769,-178.5 v 0.5 h 24 v -0.5 z m 0,79.5 v 0.5 h 24 V -99 Z" />
    <path
       id="path7229"
       style="color:#000000;overflow:visible;fill:#000000;fill-opacity:1;stroke:none;stroke-width:12;stroke-dashoffset:10;paint-order:stroke fill markers"
       d="m -739,-178.5 v 0.5 h 24 v -0.5 z m 0,80.5 v 0.5 h 24 V -98 Z" />
    <path
       id="path7231"
       style="color:#000000;overflow:visible;fill:#000000;fill-opacity:1;stroke:none;stroke-width:12;stroke-dashoffset:10;paint-order:stroke fill markers"
       d="m -1009,-68.5 v 0.5 h 24 v -0.5 z m 0,81.5 v 0.5 h 24 V 13 Z" />
    <path
       id="path7233"
       style="color:#000000;overflow:visible;fill:#000000;fill-opacity:1;stroke:none;stroke-width:12;stroke-dashoffset:10;paint-order:stroke fill markers"
       d="m -979,-68.5 v 0.5 h 24 v -0.5 z m 0,82.5 v 0.5 h 24 V 14 Z" />
    <path
       id="path7235"
       style="color:#000000;overflow:visible;fill:#000000;fill-opacity:1;stroke:none;stroke-width:12;stroke-dashoffset:10;paint-order:stroke fill markers"
       d="m -949,-68.5 v 0.5 h 24 v -0.5 z m 0,83.5 v 0.5 h 24 V 15 Z" />
    <path
       id="path7237"
       style="color:#000000;overflow:visible;fill:#000000;fill-opacity:1;stroke:none;stroke-width:12;stroke-dashoffset:10;paint-order:stroke fill markers"
       d="m -919,-68.5 v 0.5 h 24 v -0.5 z m 0,84.5 v 0.5 h 24 V 16 Z" />
    <path
       id="path7239"
       style="color:#000000;overflow:visible;fill:#000000;fill-opacity:1;stroke:none;stroke-width:12;stroke-dashoffset:10;paint-order:stroke fill markers"
       d="m -889,-68.5 v 0.5 h 24 v -0.5 z m 0,85.5 v 0.5 h 24 V 17 Z" />
    <path
       id="path7241"
       style="color:#000000;overflow:visible;fill:#000000;fill-opacity:1;stroke:none;stroke-width:12;stroke-dashoffset:10;paint-order:stroke fill markers"
       d="m -859,-68.5 v 0.5 h 24 v -0.5 z m 0,86.5 v 0.5 h 24 V 18 Z" />
    <path
       id="path7243"
       style="color:#000000;overflow:visible;fill:#000000;fill-opacity:1;stroke:none;stroke-width:12;stroke-dashoffset:10;paint-order:stroke fill markers"
       d="m -829,-68.5 v 0.5 h 24 v -0.5 z m 0,87.5 v 0.5 h 24 V 19 Z" />
    <path
       id="path7245"
       style="color:#000000;overflow:visible;fill:#000000;fill-opacity:1;stroke:none;stroke-width:12;stroke-dashoffset:10;paint-order:stroke fill markers"
       d="m -799,-68.5 v 0.5 h 24 v -0.5 z m 0,88.5 v 0.5 h 24 V 20 Z" />
    <path
       id="path7247"
       style="color:#000000;overflow:visible;fill:#000000;fill-opacity:1;stroke:none;stroke-width:12;stroke-dashoffset:10;paint-order:stroke fill markers"
       d="m -769,-68.5 v 0.5 h 24 v -0.5 z m 0,89.5 v 0.5 h 24 V 21 Z" />
    <path
       id="path7249"
       style="color:#000000;overflow:visible;fill:#000000;fill-opacity:1;stroke:none;stroke-width:12;stroke-dashoffset:10;paint-order:stroke fill markers"
       d="m -739,-68.5 v 0.5 h 24 v -0.5 z m 0,90.5 v 0.5 h 24 V 22 Z" />
    <path
       id="path7251"
       style="color:#000000;overflow:visible;fill:#000000;fill-opacity:1;stroke:none;stroke-width:12;stroke-dashoffset:10;paint-order:stroke fill markers"
       d="M -1009,51.5 V 52 h 24 v -0.5 z m 0,91.5 v 0.5 h 24 V 143 Z" />
    <path
       id="path7253"
       style="color:#000000;overflow:visible;fill:#000000;fill-opacity:1;stroke:none;stroke-width:12;stroke-dashoffset:10;paint-order:stroke fill markers"
       d="M -979,51.5 V 52 h 24 v -0.5 z m 0,92.5 v 0.5 h 24 V 144 Z" />
    <path
       id="path7255"
       style="color:#000000;overflow:visible;fill:#000000;fill-opacity:1;stroke:none;stroke-width:12;stroke-dashoffset:10;paint-order:stroke fill markers"
       d="M -949,51.5 V 52 h 24 v -0.5 z m 0,93.5 v 0.5 h 24 V 145 Z" />
    <path
       id="path7257"
       style="color:#000000;overflow:visible;fill:#000000;fill-opacity:1;stroke:none;stroke-width:12;stroke-dashoffset:10;paint-order:stroke fill markers"
       d="M -919,51.5 V 52 h 24 v -0.5 z m 0,94.5 v 0.5 h 24 V 146 Z" />
    <path
       id="path7259"
       style="color:#000000;overflow:visible;fill:#000000;fill-opacity:1;stroke:none;stroke-width:12;stroke-dashoffset:10;paint-order:stroke fill markers"
       d="M -889,51.5 V 52 h 24 v -0.5 z m 0,95.5 v 0.5 h 24 V 147 Z" />
    <path
       id="path7261"
       style="color:#000000;overflow:visible;fill:#000000;fill-opacity:1;stroke:none;stroke-width:12;stroke-dashoffset:10;paint-order:stroke fill markers"
       d="M -859,51.5 V 52 h 24 v -0.5 z m 0,96.5 v 0.5 h 24 V 148 Z" />
    <path
       id="path7263"
       style="color:#000000;overflow:visible;fill:#000000;fill-opacity:1;stroke:none;stroke-width:12;stroke-dashoffset:10;paint-order:stroke fill markers"
       d="M -829,51.5 V 52 h 24 v -0.5 z m 0,97.5 v 0.5 h 24 V 149 Z" />
    <path
       id="path7265"
       style="color:#000000;overflow:visible;fill:#000000;fill-opacity:1;stroke:none;stroke-width:12;stroke-dashoffset:10;paint-order:stroke fill markers"
       d="M -799,51.5 V 52 h 24 v -0.5 z m 0,98.5 v 0.5 h 24 V 150 Z" />
    <path
       id="path7267"
       style="color:#000000;overflow:visible;fill:#000000;fill-opacity:1;stroke:none;stroke-width:12;stroke-dashoffset:10;paint-order:stroke fill markers"
       d="M -769,51.5 V 52 h 24 v -0.5 z m 0,99.5 v 0.5 h 24 V 151 Z" />
    <path
       id="path7269"
       style="color:#000000;overflow:visible;fill:#000000;fill-opacity:1;stroke:none;stroke-width:12;stroke-dashoffset:10;paint-order:stroke fill markers"
       d="M -739,51.5 V 52 h 24 v -0.5 z m 0,100.5 v 0.5 h 24 V 152 Z" />
  </g>
  <metadata
     id="metadata130443">
    <rdf:RDF>
      <cc:Work
         rdf:about="">
        <dc:creator>
          <cc:Agent>
            <dc:title>Roberto Mocci</dc:title>
          </cc:Agent>
        </dc:creator>
        <dc:rights>
          <cc:Agent>
            <dc:title>public domain</dc:title>
          </cc:Agent>
        </dc:rights>
        <dc:coverage>https://patreon.com/rmocci</dc:coverage>
        <cc:license
           rdf:resource="http://creativecommons.org/publicdomain/zero/1.0/" />
		<dc:title>Stripe</dc:title>
      </cc:Work>
      <cc:License
         rdf:about="http://creativecommons.org/publicdomain/zero/1.0/">
        <cc:permits
           rdf:resource="http://creativecommons.org/ns#Reproduction" />
        <cc:permits
           rdf:resource="http://creativecommons.org/ns#Distribution" />
        <cc:permits
           rdf:resource="http://creativecommons.org/ns#DerivativeWorks" />
      </cc:License>
    </rdf:RDF>
  </metadata>
</svg>
